<svg xmlns="http://www.w3.org/2000/svg" xmlns:xlink="http://www.w3.org/1999/xlink" version="1.1" x="0px" y="0px" width="278.143px" height="278.143px" viewBox="0 0 278.143 278.143" enable-background="new 0 0 278.143 278.143" xml:space="preserve" class="logocircle"><style>.style0{fill-rule:	evenodd;clip-rule:	evenodd;fill:	#36363D; -webkit-transition: all 0.3s;}</style><path d="M139.072 0c76.808 0 139.1 62.3 139.1 139.1 c0 25.422-6.826 49.25-18.74 69.754l-41.845-31.147c7.252-22.205 7.085-57.072-0.499-78.694 c-3.829-10.918-9.084-19.718-15.766-26.399c-6.682-6.68-14.462-11.529-23.343-14.543c-8.882-3.015-18.374-4.523-28.477-4.523H66.367 v171.104h83.107c10.103 0 19.595-1.508 28.477-4.521l0.781-0.271l29.647 39.828c-20.403 11.754-44.068 18.484-69.308 18.5 C62.265 278.1 0 215.9 0 139.072S62.265 0 139.1 0 M113.896 114.262l139.573 103.9 c-9.646 13.928-21.77 26.008-35.733 35.604L113.896 114.262z" class="style0"/></svg>