<svg version="1.1" id="world" xmlns="http://www.w3.org/2000/svg" xmlns:xlink="http://www.w3.org/1999/xlink" x="0px" y="0px"
	 width="2250px" height="1266px" viewBox="0 0 2250 1266" enable-background="new 0 0 2250 1266" xml:space="preserve">
<filter  x="-0.14280397" y="-0.10347618" width="1.2856079" height="1.2069525" id="filter9976" color-interpolation-filters="sRGB">
	<feGaussianBlur  id="feGaussianBlur9978" stdDeviation="16.10771"></feGaussianBlur>
</filter>
<filter  x="-0.094991662" y="-0.16288166" width="1.1899832" height="1.3257633" id="filter8069" color-interpolation-filters="sRGB">
	<feGaussianBlur  id="feGaussianBlur8071" stdDeviation="11.7082"></feGaussianBlur>
</filter>
<filter  x="-0.12880474" y="-0.11232197" width="1.2576095" height="1.2246439" id="filter5593" color-interpolation-filters="sRGB">
	<feGaussianBlur  id="feGaussianBlur5595" stdDeviation="8.6149197"></feGaussianBlur>
</filter>
<filter  x="-0.10518914" y="-0.13966516" width="1.2103783" height="1.2793303" id="filter3784" color-interpolation-filters="sRGB">
	<feGaussianBlur  id="feGaussianBlur3786" stdDeviation="18.369749"></feGaussianBlur>
</filter>
<filter  x="-0.12480887" y="-0.11554795" width="1.2496177" height="1.2310959" id="filter3783" color-interpolation-filters="sRGB">
	<feGaussianBlur  id="feGaussianBlur3785" stdDeviation="8.8993772"></feGaussianBlur>
</filter>


<g id="group-consulting">
	<g id="path9974" filter="url(#filter9976)">
		<path fill="#b2d1f1" d="M1459.394,264.194l-4.595,2.928l-2.625,2.204l-4.905,7.715c-0.64,1.787-1.56,3.56-2.97,4.85
			c-4.143,3.789-8.598,4.282-15,4.282c-11.959,0-22.6-2.883-23.344-3.086l-0.5-0.095l-13.095-2.803
			c-0.711-0.149-1.403-0.382-2.063-0.692l-9.938-4.66l-18.875-5.195l-1.406,2.109l2.156,4.66l9.844,11.241
			c1.286,1.462,2.093,3.287,2.313,5.228l0.719,6.455c0.104,0.923,0.072,1.856-0.094,2.771l-1.438,7.936
			c-0.214,1.184-0.646,2.316-1.281,3.338l-2.563,4.125l-1.719,10.359v7.494l0.094,0.943l8.438,3.59
			c3.127,1.319,5.311,4.229,5.719,7.62l0.688,5.764c0.056,0.47,0.077,0.942,0.063,1.417l-0.688,22.293
			c-0.103,3.355-1.956,6.409-4.875,8.029c0,0-1.89,1.065-4.25,2.142s-4.278,2.646-9.625,2.646c-4.39,0-12.933,0.002-20.813-2.646
			c-5.115-1.719-7.783-4.354-10.438-6.612c-0.408-0.348-0.345-0.331-0.719-0.661v4.755c-0.001,4.605-3.28,8.547-7.781,9.353
			l-7.875,1.417c-1.513,0.269-3.069,0.16-4.531-0.314c-0.424,5.138-1.647,9.689-2.156,12.249c-0.808,4.067-2.218,6.675-3.5,9.541
			c-1.124,2.51-1.928,4.589-2.03,4.66c0.04,0.229,0.156,0.63,0.219,0.913l4.219-0.504c1.569-0.186,3.16,0.032,4.625,0.63l3.594,1.448
			c4.833,1.954,7.18,7.484,5.239,12.354c-0.1,0.252-0.211,0.501-0.333,0.743l-4.313,8.628c-0.62,1.25-1.505,2.347-2.595,3.212
			l-3.813,2.991c-0.206,1.052-0.406,2.247-0.406,3.212c0,1.75,0.74,8.804,1.094,12.28l1.845,1.857
			c3.512,3.534,3.702,9.207,0.438,12.974l-2.375,2.739l0.625,8.281c4.738,2.178,6.827,7.813,4.667,12.586
			c-0.143,0.316-0.303,0.623-0.479,0.922l4.063,4.756c1.856,2.176,2.638,5.081,2.125,7.902l-1.438,7.937
			c-0.514,2.829-2.271,5.271-4.781,6.644l-15.719,8.628c-4.114,2.263-9.254,1.136-12.063-2.645l-1.438-1.952h-2.438
			c-0.125-0.009-0.25-0.021-0.375-0.032c-1.095,1.472-1.816,2.364-3.531,4.881c-1.376,2.021-2.73,4.142-3.5,5.542
			c-0.167,0.303-0.146,0.321-0.25,0.535c0.115-0.544,0.139-1.49-0.313-3.306c0.364,1.468,0.33,2.429,0.281,3.337
			c-0.001,0.018,0.001,0.047,0,0.063c-0.076,1.274-0.302,2.282-0.531,3.085c-0.396,1.384-0.866,2.479-1.375,3.589
			c-1.02,2.229-2.255,4.404-3.469,6.455c-1.786,3.021-2.767,4.427-3.595,5.668l-0.53,4.251l6.969,7.525
			c0.969,1.063,1.685,2.333,2.094,3.715l2.594,8.597l0.095,0.221l4.188,10.58c0.132,0.317,0.247,0.646,0.344,0.976
			c1.985,0.537,4.2,0.945,5.906,0.945c1.153,0,1.376-0.052,2.75-0.252c1.374-0.199,3.579-0.474,6.531-0.474h16.438
			c3.574,0,6.841,2.037,8.438,5.26c0,0,3.161,3.798,2.938,3.684c0.077,0.039,3.776,1.229,6.688,1.795
			c1.312,0.258,1.469,0.26,2.406,0.409l5-2.771c1.056-0.584,2.212-0.957,3.405-1.104l17.031-2.078l10.531-3.338l1.906-1.921
			c0.875-0.888,1.914-1.594,3.063-2.078l12.156-5.038c0.154-0.055,0.311-0.107,0.469-0.157l4.375-1.543
			c-1.818-1.787-2.844-4.239-2.844-6.801v-5.038c0.006-2.933,1.355-5.696,3.656-7.493l6.438-5.038
			c0.984-0.771,2.109-1.338,3.313-1.669l15.72-4.313c1.129-0.311,2.305-0.405,3.469-0.284l13.563,1.449
			c1.119,0.12,2.211,0.438,3.219,0.943l14.281,7.181c0.301,0.152,0.592,0.319,0.875,0.504l6.75,4.345l-5.25-5.794
			c-1.797-1.991-2.672-4.656-2.406-7.337l0.281-2.707l-16.125-16.247c-1.525-1.531-2.484-3.543-2.719-5.699l-1.25-11.966
			l-9.625-19.428l-8.781-0.441c-1.051-0.047-2.086-0.271-3.063-0.661l-3.563-1.447c-4.827-1.969-7.157-7.508-5.204-12.37
			c0.645-1.604,1.709-2.998,3.079-4.035l5.688-4.314c0.517-0.393,1.072-0.729,1.656-1.007l8-3.779l3.969-17.16
			c1.185-5.11,6.252-8.286,11.324-7.096c2.494,0.586,4.646,2.17,5.957,4.388l6.438,10.801c1.125,1.901,1.557,4.141,1.219,6.329
			l-2.5,16.217l8.844,23.521l10.563,17.57c1.455-1.458,3.342-2.396,5.375-2.677l15.719-2.142c0.414-0.06,0.832-0.091,1.25-0.095
			h5.345l4.78-1.952l2.25-7.398l-8.313-10.486c-0.439-0.554-0.818-1.156-1.125-1.795l-8.469-17.79l-0.125-0.221l-10.125-19.774
			l-13.031-16.563c-0.236-0.291-0.455-0.597-0.656-0.913l-9.281-15.114c-0.698-1.151-1.146-2.438-1.313-3.778l-2.063-16.091
			l-4.188-17.443c-0.657-2.714-0.098-5.581,1.531-7.842l13.594-18.734c0.041-0.054,0.082-0.105,0.125-0.157l12.25-16.217l3.125-15.87
			c0.207-1.043,0.588-2.043,1.125-2.96l15.875-27.079l7.5-25.506c0.445-1.522,1.263-2.908,2.375-4.03l10.813-10.863v-1.291
			l-3.344-3.149l-0.845,0.188l-10,4.063c-1.309,0.528-2.719,0.755-4.125,0.661l-11.438-0.724c-1.834-0.12-3.594-0.776-5.063-1.89
			l-6.5-4.943L1459.394,264.194z"/>
	</g>
	<g id="path9974_1_" filter="url(#filter9976)">
		<path fill="#a5bcd4" d="M1477.689,243.587l-5.408,3.167l-3.09,2.384l-5.775,8.346c-0.753,1.934-1.836,3.851-3.495,5.248
			c-4.874,4.099-10.118,4.632-17.653,4.632c-14.074,0-26.6-3.119-27.475-3.339l-0.588-0.102l-15.414-3.032
			c-0.837-0.162-1.651-0.414-2.428-0.75l-11.695-5.041l-22.215-5.62l-1.656,2.282l2.537,5.041l11.588,12.162
			c1.514,1.581,2.463,3.555,2.721,5.654l0.846,6.985c0.123,0.998,0.086,2.007-0.108,2.997l-1.693,8.584
			c-0.251,1.281-0.761,2.507-1.508,3.612l-3.015,4.462l-2.024,11.208v8.107l0.108,1.02l9.934,3.884
			c3.68,1.427,6.25,4.575,6.729,8.243l0.814,6.235c0.063,0.508,0.089,1.02,0.072,1.533l-0.81,24.117
			c-0.122,3.63-2.303,6.934-5.739,8.686c0,0-2.225,1.153-5.002,2.317c-2.777,1.164-5.035,2.862-11.329,2.862
			c-5.165,0-15.221,0.002-24.496-2.862c-6.021-1.859-9.159-4.71-12.285-7.153c-0.479-0.376-0.403-0.359-0.845-0.715v5.144
			c-0.003,4.981-3.861,9.246-9.156,10.118l-9.271,1.533c-1.78,0.291-3.611,0.174-5.333-0.34c-0.499,5.558-1.938,10.482-2.537,13.251
			c-0.952,4.4-2.611,7.222-4.12,10.322c-1.322,2.715-2.268,4.964-2.39,5.042c0.047,0.247,0.186,0.682,0.259,0.988l4.966-0.545
			c1.846-0.201,3.718,0.035,5.442,0.681l4.23,1.567c5.688,2.114,8.449,8.097,6.164,13.365c-0.115,0.273-0.248,0.542-0.392,0.804
			l-5.075,9.334c-0.729,1.352-1.771,2.539-3.052,3.475l-4.489,3.235c-0.242,1.138-0.478,2.432-0.478,3.475
			c0,1.894,0.872,9.524,1.286,13.285l2.172,2.01c4.133,3.823,4.357,9.959,0.515,14.035l-2.795,2.963l0.735,8.958
			c5.576,2.356,8.037,8.452,5.493,13.615c-0.167,0.343-0.356,0.675-0.562,0.998l4.78,5.145c2.187,2.354,3.105,5.497,2.501,8.549
			l-1.693,8.586c-0.603,3.06-2.671,5.703-5.626,7.187l-18.5,9.333c-4.843,2.449-10.892,1.23-14.199-2.86l-1.693-2.112h-2.868
			c-0.146-0.009-0.294-0.021-0.442-0.035c-1.288,1.593-2.138,2.558-4.155,5.28c-1.619,2.186-3.214,4.48-4.119,5.996
			c-0.196,0.328-0.173,0.348-0.295,0.579c0.137-0.588,0.163-1.612-0.367-3.577c0.429,1.589,0.388,2.628,0.332,3.61
			c-0.003,0.02,0.001,0.051,0,0.069c-0.092,1.378-0.356,2.469-0.628,3.336c-0.466,1.497-1.019,2.682-1.617,3.883
			c-1.2,2.411-2.654,4.764-4.082,6.982c-2.103,3.268-3.257,4.79-4.231,6.132l-0.624,4.599l8.202,8.141
			c1.14,1.15,1.982,2.524,2.465,4.02l3.053,9.299l0.111,0.24l4.928,11.445c0.156,0.343,0.292,0.698,0.406,1.055
			c2.335,0.581,4.942,1.022,6.949,1.022c1.358,0,1.62-0.056,3.238-0.271c1.616-0.216,4.211-0.513,7.687-0.513h19.347
			c4.207,0,8.05,2.204,9.931,5.69c0,0,3.722,4.108,3.458,3.985c0.092,0.042,4.443,1.329,7.874,1.941
			c1.542,0.279,1.727,0.282,2.831,0.442l5.884-2.998c1.244-0.631,2.604-1.034,4.01-1.194l20.045-2.248l12.395-3.611l2.244-2.077
			c1.029-0.961,2.253-1.725,3.603-2.249l14.308-5.45c0.182-0.059,0.367-0.116,0.553-0.17l5.15-1.668
			c-2.141-1.934-3.349-4.586-3.349-7.358v-5.45c0.008-3.173,1.596-6.163,4.305-8.106l7.575-5.451
			c1.158-0.833,2.484-1.447,3.899-1.806l18.501-4.666c1.329-0.336,2.714-0.438,4.084-0.307l15.963,1.567
			c1.318,0.13,2.603,0.474,3.788,1.021l16.81,7.769c0.354,0.165,0.696,0.345,1.03,0.545l7.942,4.7l-6.178-6.268
			c-2.115-2.155-3.146-5.037-2.832-7.938l0.33-2.929l-18.978-17.576c-1.795-1.657-2.924-3.832-3.198-6.165l-1.475-12.945
			l-11.327-21.018l-10.336-0.477c-1.236-0.051-2.453-0.292-3.605-0.715l-4.193-1.566c-5.683-2.13-8.423-8.122-6.124-13.382
			c0.757-1.735,2.011-3.244,3.622-4.365l6.695-4.667c0.608-0.425,1.264-0.789,1.949-1.09l9.417-4.087l4.672-18.564
			c1.394-5.529,7.356-8.964,13.327-7.676c2.936,0.634,5.468,2.347,7.011,4.746l7.578,11.685c1.325,2.057,1.831,4.48,1.435,6.847
			l-2.942,17.543l10.409,25.444l12.432,19.009c1.713-1.578,3.932-2.593,6.326-2.896l18.5-2.317c0.488-0.064,0.98-0.099,1.472-0.102
			h6.29l5.627-2.112l2.648-8.004l-9.784-11.344c-0.517-0.6-0.963-1.251-1.324-1.941l-9.968-19.246l-0.146-0.239l-11.918-21.392
			l-15.337-17.918c-0.279-0.314-0.536-0.646-0.773-0.988l-10.923-16.351c-0.821-1.246-1.348-2.638-1.544-4.088l-2.428-17.407
			l-4.93-18.871c-0.773-2.936-0.116-6.038,1.802-8.483l15.998-20.268c0.05-0.058,0.099-0.114,0.149-0.169l14.418-17.543
			l3.676-17.169c0.245-1.128,0.693-2.21,1.324-3.201l18.686-29.295l8.827-27.593c0.524-1.647,1.486-3.146,2.795-4.36l12.728-11.752
			v-1.396l-3.936-3.407l-0.994,0.204l-11.77,4.396c-1.542,0.57-3.2,0.815-4.855,0.714l-13.462-0.784
			c-2.16-0.129-4.23-0.839-5.958-2.044l-7.65-5.347L1477.689,243.587z"/>
	</g>
	<g>
		<path id="island-consulting" fill="#36363D" stroke="#FFFFFF" stroke-width="3" d="M1377.169,376.384
			c-21.385,4.372-58.035-18.979-76.43-3.599c15.469,23.986-22.458,54.619-8.711,62.376c24.36,13.746,27.599,29.486,20.95,61.183
			c-6.146,29.298-19.925,20.02-30.097,32.623c-44.347,54.947-5.421,65.786,36.429,84.207c14.193,6.246,16.461,10.861,30,7.197
			c33.369-9.033,55.979-19.927,83.571-33.828l-7.143-1.438l-9.285-2.88c0,0-3.162,7.03-6.43,7.917
			c-1.964,0.533-4.556-0.475-5.714-2.157c-0.95-1.383-0.733-3.531,0-5.038c28.703-15.96,44.73-4.119,67.857,10.793
			c0,0,4.705-1.276,6.428-2.879c2.193-2.036,4.287-7.914,4.287-7.914l-15.002-16.556c-15.09-22.243,10.233-16.586,45-30.228
			l5-16.555c-19.819-28.216-38.799-61.814-53.572-85.647c-0.813-11.786-3.704-23.112-6.428-34.547
			c8.799-12.424,17.979-24.558,27.146-36.706l3.569-17.993l16.431-28.07l7.854-26.63c0,0,11.125-7.719,13.572-13.675
			c3.061-8.747-3.027-14.122-10-18.713c-20.873,11.272-39.326-1.39-55.002-3.599c-9.459-1.145-14.181,11.771-18.57,18.713
			c-22.303,21.115-86.885-32.46-89.286-2.159c-0.732,9.261,9.969,16.47,15.715,23.031c1.211,4.993,0.176,9.465-0.715,14.395
			c-6.916,9.897-5.996,24.035-5,34.548l13.572,5.758C1378.554,357.592,1377.468,367.045,1377.169,376.384z"/>
		<g>
			<path id="path3892_1_" fill="none" stroke="#FFFFFF" stroke-dasharray="1,1" d="M1464.758,274.348
				c-1.229,2.125-2.407,4.467-5,8.564c-0.854,1.351-1.873,2.589-3.03,3.685c-11.855,11.223-27.41,11.287-39.281,9.258
				c-10.695-1.829-20.469-5.407-29.313-8.628c0.191,0.548,0.358,1.104,0.5,1.669c2.433,10.026,0.284,18.042-0.5,22.388
				c-0.491,2.74-1.567,5.341-3.155,7.62c-0.932,1.332-1.614,5.459-1.845,10.611l2.22,0.944c6.112,2.603,10.444,8.219,11.438,14.831
				c1.887,12.641,0.482,23.324,0.219,31.582c-0.293,8.902-6.617,16.435-15.281,18.2c-19.265,3.938-34.451-2.955-47.53-6.077
				c-3.703-0.884-6.989-1.498-9.938-1.921c-0.048,2.728-0.304,5.369-0.75,7.81c-1.764,9.65-5.531,17.379-8.688,23.68
				c-1.522,3.039-1.858,3.896-2.938,6.108c9.925,7.518,17.632,16.981,21.22,28.402c4.693,14.944,2.896,29.981-0.688,47.075
				c-3.753,17.893-14.052,30.67-23.281,35.581c-9.229,4.911-9.706,3.979-10.688,5.194c-10.03,12.43-14.107,21.345-15.031,25.662
				c-0.924,4.319-0.724,3.831,1.031,6.046c3.511,4.431,21.628,13.268,43.28,22.795c8.327,3.667,13.235,6.51,14.125,6.833
				c0.891,0.325-1.27,0.645,3.313-0.598c15.165-4.105,27.758-8.585,39.844-13.604c-0.646-5.174,0.993-9.625,2.97-13.695
				c1.72-3.542,4.479-6.467,7.905-8.376c17.041-9.475,34.511-11.823,49.188-8.155c-0.146-2.797,0.107-5.77,1.031-9.037
				c1.741-6.155,6.018-11.099,9.78-13.854s7.162-4.084,10.345-5.195c9.885-3.454,19.766-5.057,30.75-8.345
				c-18.246-27.1-35.125-56.557-48.063-77.431c-1.651-2.67-2.629-5.708-2.844-8.848c-0.656-9.484-3.164-19.748-5.938-31.394
				c-1.285-5.399-0.191-11.095,3-15.618c8.15-11.509,16.518-22.598,24.813-33.6l2.75-13.729c0.413-2.107,1.174-4.13,2.252-5.982
				l15.248-26.071l7.188-24.341c0.349-1.197,0.808-2.357,1.375-3.464c-4.688-0.143-9.172-0.557-13.061-1.417
				C1475.418,277.681,1469.383,275.711,1464.758,274.348z"/>
			<path id="path3901_1_" fill="none" stroke="#FFFFFF" stroke-dasharray="1,1" d="M1471.416,293.021
				c-1.354,1.972-2.904,3.797-4.627,5.447c-16.947,16.044-38.455,15.657-52.469,13.257c-3.707-0.636-7.201-1.423-10.563-2.299
				c-0.377,2.201-0.734,4.075-0.938,5.195c-0.516,2.78-1.365,5.487-2.531,8.062c6.07,5.4,10.063,12.778,11.281,20.846
				c2.293,15.354,0.58,26.974,0.344,34.354c-0.518,16.11-11.949,29.753-27.625,32.969c-22.175,4.533-36.672-0.794-48.063-4.346
				c-1.758,6.035-3.907,10.65-5.97,14.926c7.565,7.771,13.734,16.961,17.031,27.457c6.051,19.266,3.515,36.909-0.281,55.012
				c-4.305,20.521-18.921,39.635-31.188,46.159c-5.723,3.044-7.421,3.855-7.875,3.873c-3.648,4.805-6.098,8.605-7.595,11.398
				c6.014,3.157,17.916,9.689,33.031,16.342c4.331,1.906,7.608,3.447,9.969,4.629c9.686-2.708,18.283-5.608,26.406-8.689
				c0.956-3.351,2.297-6.515,3.781-9.572c3.12-6.424,8.128-11.725,14.344-15.177c14.049-7.811,29.779-11.653,44.313-11.523
				c3.334-8.204,9.131-14.819,14.094-18.452c5.711-4.183,10.363-5.915,14.344-7.306c3.912-1.367,7.498-2.421,10.908-3.338
				c-13.871-21.918-26.39-43.568-36.252-59.481c-2.99-4.827-4.762-10.318-5.156-15.996c-0.524-7.617-2.748-17.025-5.563-28.843
				c-2.337-9.799-0.343-20.137,5.469-28.34c7.625-10.765,15.317-20.939,22.938-31.047l2.03-10.233
				c0.75-3.827,2.136-7.5,4.095-10.864l14.313-24.435l2.563-8.754C1474.254,293.828,1472.933,293.429,1471.416,293.021z"/>
			<path id="path3910_1_" fill="none" stroke="#FFFFFF" stroke-dasharray="1,1" d="M1484.729,245.757
				c-0.293-0.059-1.004,0.684-2.156,2.708c0.154-0.117,0.311-0.232,0.469-0.347c0,0,0.764-0.573,1.594-1.291
				C1484.944,246.558,1485.049,245.82,1484.729,245.757L1484.729,245.757z M1440.103,327.185
				c-6.398,1.063-12.519,1.229-18.095,0.945c1.728,3.993,2.935,8.195,3.595,12.501c0.77,5.153,1.088,9.731,1.25,13.98
				c3.262-4.422,6.522-8.869,9.75-13.162l1.375-6.896C1438.498,332.047,1439.209,329.584,1440.103,327.185z M1408.478,414.723
				c-6.479,5.601-14.265,9.446-22.625,11.179c-13.291,2.717-23.77,2.659-32.406,1.479c3.018,5.083,5.55,10.476,7.344,16.186
				c7.436,23.671,4.105,43.973,0.094,63.103c-4.412,21.041-20.465,43.843-34.875,54.032c3.77,1.923,7.628,3.91,12.125,5.889
				c2.161,0.952,3.105,1.44,4.844,2.235c4.387-1.31,8.885-2.64,12.875-4.03c0.638-1.433,1.289-2.848,1.97-4.251
				c4.54-9.354,11.829-17.07,20.875-22.104c12.778-7.104,27.649-11.416,42.155-12.814c4.476-6.965,9.867-12.661,14.595-16.122
				c3.967-2.905,7.438-4.859,10.563-6.329c-9.776-16.03-18.5-30.965-25.655-42.509c-4.369-7.039-6.955-15.052-7.531-23.333
				C1412.474,432.287,1410.797,424.602,1408.478,414.723z"/>
			<path id="path3775_1_" fill="none" stroke="#FFFFFF" stroke-dasharray="1,1" d="M1459.819,261.501
				c-1.336-0.162-2.151,0.316-4.405,3.369c-2.254,3.052-4.435,7.758-7.095,11.965c-0.336,0.521-0.733,0.997-1.188,1.417
				c-7.998,7.573-19.033,7.956-29.281,6.203s-20.754-5.691-30.344-9.163s-18.454-6.365-23.313-6.675
				c-2.43-0.155-3.42,0.311-3.469,0.346c-0.051,0.036-0.375-0.057-0.563,2.33c-0.129,1.627,0.829,3.861,3.594,7.022
				s6.822,6.499,10.313,10.485c0.785,0.901,1.345,1.981,1.625,3.148c1.683,6.936,0.224,12.771-0.625,17.477
				c-0.188,1.064-0.604,2.074-1.219,2.96c-4.184,5.986-4.59,15.954-4,25.223l9.375,3.968c2.369,0.998,4.053,3.171,4.438,5.729
				c1.579,10.575,0.349,20.521,0.063,29.441c-0.11,3.429-2.539,6.332-5.875,7.021c-13.998,2.862-28.779-2.705-42.5-5.981
				c-6.859-1.64-13.333-2.836-18.625-2.803c-2.826,0.018-5.211,0.367-7.28,1.038c1.833,5.723,1.979,11.627,1,16.973
				c-1.398,7.634-4.615,14.498-7.625,20.499c-3.011,6.001-5.835,11.321-6.813,14.391c-0.347,1.088-0.321,1.219-0.344,1.448
				c12.614,7.299,21.136,16.145,24.719,27.552c3.666,11.672,2.425,24.766-1,41.093c-3.335,15.9-10.353,23.896-17.281,27.583
				c-6.928,3.688-10.778,3.849-14.28,8.188c-10.68,13.232-15.896,23.424-17.438,30.637c-1.543,7.215-0.195,11.367,3.375,15.869
				c7.141,9.01,26.514,16.896,47.719,26.229c7.571,3.334,11.992,6.118,14.813,7.147c2.819,1.028,4.419,1.289,10.344-0.314
				c20.419-5.526,36.581-11.845,52.563-19.082c-0.584-0.606-1.198-1.163-1.719-1.922c-3.285-4.774-2.255-9.013-0.563-12.5
				c0.665-1.369,1.733-2.504,3.063-3.241c15.532-8.637,29.293-10.153,41.469-6.864c11.024,2.978,20.551,9.3,30.752,15.932
				c0.313-0.169,0.604-0.303,0.75-0.378c-0.092,0.059,0.244-0.516,0.438-0.817l-11.721-12.94c-0.227-0.258-0.436-0.531-0.625-0.818
				c-4.232-6.236-7.082-11.941-5.25-18.421c0.916-3.236,3.15-5.818,5.438-7.492c2.285-1.675,4.703-2.722,7.281-3.621
				c9.6-3.354,22.605-5.197,37.656-10.644l2.875-9.604c-19.355-27.988-37.631-60.134-51.75-82.908
				c-0.639-1.036-1.016-2.215-1.094-3.433c-0.754-10.898-3.508-21.799-6.25-33.314c-0.502-2.089-0.08-4.295,1.156-6.046
				c8.547-12.067,17.438-23.777,26.252-35.455l3.25-16.374c0.157-0.821,0.454-1.609,0.875-2.33l15.967-27.269l7.594-25.758
				c0.486-1.63,1.512-3.042,2.906-3.999c0,0,2.488-1.738,5.25-4.125c2.711-2.342,5.389-5.714,5.625-6.172
				c0.697-2.113,0.479-2.643-0.469-4.062c-0.617-0.929-1.937-2.119-3.5-3.369c-10.759,4.432-21.291,3.918-30.187,1.952
				C1474.656,266.026,1466.127,262.425,1459.819,261.501z"/>
		</g>
	</g>
</g>
<g id="group-content">
	<g id="path8059" filter="url(#filter8069)">
		<path fill="#b2d1f1" d="M1740.878,492.155c-6.82-0.298-13.904-0.046-21.127,0.532l-22.014,3.031l-31.824,16.653l-0.354,0.213
			v-0.054c-3.584,2.042-6.769,2.408-9.549,2.819c-2.214,0.328-3.689,0.653-4.994,0.957c0.09,0.325,0.207,0.639,0.354,1.064
			c10.412,10.751,12.773,25.522,14.719,37.774l22.455,9.149c0.621,0.25,1.215,0.589,1.768,1.012l30.634,23.89
			c1.782,1.388,3.036,3.566,3.491,6.063l5.349,29.05v0.055l11.094,41.924l22.188,32.881c0.99,1.459,1.604,3.234,1.771,5.107
			l3.138,36.02l18.653,3.885c0.982,0.197,1.929,0.611,2.783,1.226l15.78,11.49l28.244-0.584c0.761-0.023,1.521,0.084,2.254,0.317
			l39.738,13.195l44.732-0.959l-2.697-7.396c-1.236-3.393-0.756-7.34,1.238-10.162l1.592-2.233l-3.316-3.992
			c-0.137-0.17-0.27-0.348-0.396-0.531l-13.396-18.727c-2.112-2.957-2.549-7.15-1.104-10.644l5.879-14.205
			c1.982-4.789,6.814-6.737,10.793-4.352c0.337,0.197,0.658,0.426,0.966,0.682l3.051,2.5l2.785-3.352
			c2.746-3.301,7.059-3.771,10.254-1.117l0.221-1.438l-11.271-15.109c-1.957-2.615-2.584-6.301-1.635-9.631l5.924-20.695
			l-0.93-12.131c-0.381-5.296,2.854-9.972,7.25-10.482l16.619-1.913c2.525-0.288,5.016,0.877,6.719,3.139l2.785,3.724l5.879-9.043
			c0.641-0.992,1.438-1.823,2.342-2.448l15.029-10.321c2.758-1.901,6.186-1.673,8.752,0.586l20.377,18.088
			c1.965,1.742,3.168,4.462,3.271,7.396l0.309,8.779l8.088,3.139c0.539,0.201,1.057,0.47,1.549,0.798l18.785,12.983l5.967-1.543
			l-9.813-20.271l-18.875-11.653c-2.328-1.444-3.928-4.164-4.287-7.289l-2.695-23.888c-0.158-1.334-0.084-2.694,0.221-3.991
			l4.465-18.673l-10.034-20.695l-13.48-4.203l-19.979,6.49c-1.701,0.537-3.502,0.387-5.127-0.425l-39.162-19.366
			c-1.133-0.553-2.145-1.408-2.961-2.501l-14.588-19.792l-2.121,0.159l-5.834,11.705c-1.26,2.498-3.387,4.18-5.791,4.575
			l-35.406,5.8c-0.525,0.099-1.059,0.135-1.59,0.105l-33.594-2.447l-8.486,4.311c-1.65,0.836-3.486,0.986-5.217,0.426l-11.801-3.884
			c-2.095-0.7-3.863-2.389-4.906-4.683l-7.25-15.748C1778.479,498.343,1760.892,493.026,1740.878,492.155L1740.878,492.155z"/>
	</g>
	<g id="path8059_1_" filter="url(#filter8069)">
		<path fill="#1c4f82" fill-opacity="0.3" d="M2071.883,666.4l-19.617,1.811l-9.639,2.509c-0.539-0.361-6.34-4.993-6.93-5.214L2021.5,664.5l-16.993-8
			c-0.11-3.23-28.613-3.898-3.007-14.35l-3.456-15.087c-2.82-2.49-8.931,8.032-6.081-5.393l-10.42,0.838
			c-0.99,0.69-1.87,1.6-2.58,2.69l-6.46,9.951l-3.07-4.101c-1.87-2.49-4.609-3.77-7.39-3.45l-18.28,2.1
			c-4.84,0.57-8.39,5.71-7.97,11.541l1.02,13.34l-6.52,22.76c-1.04,3.67,7.244,6.375,9.395,9.256l4.806,17.963l-0.24,1.58
			c-3.521-2.92-8.26-2.398-11.28,1.23l-3.07,3.68l-3.35-2.75c-0.34-0.279-0.689-0.529-1.06-0.75c-4.38-2.619-9.7-0.479-11.88,4.791
			l-6.461,15.629c-1.59,3.84-1.109,8.451,1.211,11.711l14.739,20.59c0.141,0.211,0.28,0.4,0.431,0.59l3.649,4.391l-1.75,2.459
			c-2.189,3.1-2.72,7.441-1.359,11.18l2.96,8.131l-49.2,1.061l-43.71-14.521c-0.811-0.26-1.65-0.369-2.48-0.35l-31.069,0.641
			l-17.36-12.641c-0.94-0.67-1.98-1.129-3.061-1.34l-20.52-4.279l-3.45-39.621c-0.18-2.059-0.859-4.01-1.95-5.619l-24.409-36.17
			l-12.2-46.11v-0.06l-5.88-31.96c-0.5-2.74-1.88-5.14-3.841-6.67l-33.699-26.27c-0.61-0.47-1.261-0.84-1.95-1.12l-24.7-10.06
			c-2.14-13.48-4.729-29.73-16.189-41.55c-0.16-0.47-0.29-0.82-0.391-1.17c1.44-0.34,3.061-0.7,5.5-1.06
			c3.061-0.45,6.561-0.85,10.5-3.1v0.06l0.391-0.23l35.01-18.32l24.21-3.34c7.95-0.63,15.74-0.91,23.24-0.58
			c22.02,0.96,41.359,6.8,57.92,23.23l7.97,17.32c1.15,2.53,3.09,4.39,5.4,5.16l12.979,4.27c1.9,0.61,3.92,0.45,5.74-0.47l9.33-4.74
			l36.95,2.69c0.59,0.03,1.18-0.01,1.75-0.12l38.949-6.38c2.65-0.43,4.99-2.28,6.37-5.03l6.42-12.87l2.33-0.18l16.05,21.77
			c0.9,1.2,2.011,2.14,3.25,2.75l43.08,21.31c1.79,0.89,3.771,1.05,5.641,0.46l21.979-7.14l14.83,4.63l3.737,19.526l-6.672,20.646
			c-0.33,1.43,3.502,14.419,3.672,15.89l8.113,17.908c0.39,3.44,2.149,6.43,4.71,8.02l17.177,20.21L2071.883,666.4z"/>
	</g>
	<path id="island-content" fill="#36363D" stroke="#FFFFFF" stroke-width="3" d="M1642.708,522.758
		c10.801,9.545,11.908,24.925,14.494,39.414l26.84,10.983l30.598,23.905c3.605,25.043,10.717,49.265,17.178,73.659l23.084,34.246
		l3.757,43.289l24.692,5.17l17.715,12.922l30.599-0.645l40.797,13.565l57.976-1.291l-7.517-20.678l6.44-9.045
		c-8.002-8.949-14.891-19.137-22.008-29.074c-13.758-19.211,17.025-22.059,22.008-16.153l9.662,11.631l3.759-23.908l-13.957-18.736
		l6.442-22.617l-1.074-14.215l16.642-1.938l9.125,12.277l11.812-18.091l15.028-10.338l20.398,18.089l0.536,15.508
		c0,0,9.123,2.886,13.421,5.17c7.553,4.015,21.473,14.861,21.473,14.861l19.861-5.17l-16.642-34.244l-20.936-12.924l-2.684-23.907
		c6.707-19.433,7.26-35.958-8.054-50.396c-5.153-4.697-12.319-5.855-18.786-5.815c-7.597,0.048-22.011,7.107-22.011,7.107
		l-39.187-19.384l-17.178-23.262l-10.199,0.646l-8.053,16.153c-23.738,6.913-46.836,4.981-70.856,3.229
		c-19.603,10.356-22.771-0.359-30.062-16.153c-35.83-28.713-66.072-25.884-104.139-20.677l-33.283,17.446
		c-7.764,4.652-26.629-1.485-17.713,19.384z"/>
	<g>
		<path id="path3772_1_" fill="none" stroke="#FFFFFF" stroke-dasharray="1,1" d="M1734.794,506.471
			c-9.43-0.188-20.354,1.042-32.688,2.677l-28.563,14.956c3.42,7.4,5.146,14.794,6.219,21.382l14.47,5.92
			c1.989,0.81,3.862,1.891,5.563,3.211l30.594,23.898c4.818,3.762,8,9.256,8.875,15.333c3.107,21.594,9.34,43.732,15.563,67.039
			l20.875,30.953c2.258,3.354,3.625,7.236,3.969,11.271l2.219,25.727l7.595,1.574c3.248,0.688,6.315,2.063,9,4.031l11.313,8.25
			l22.75-0.474c2.66-0.061,5.313,0.332,7.844,1.164l37,12.313l23.5-0.535c0.162-1.656,0.498-3.293,1-4.881
			c-4.408-5.906-8.416-11.711-12.25-17.066c-6.035-8.428-10.461-21.217-6.125-33.346s14.029-17.711,21.25-20.312
			c0.973-0.35,1.896-0.569,2.844-0.85c-1.227-4.268-1.235-8.795-0.03-13.068l5.28-18.481l-0.78-9.951
			c-0.966-12.682,8.18-23.87,20.719-25.348l16.656-1.952c2.555-0.297,5.143-0.169,7.655,0.378c0.853-0.801,1.761-1.537,2.72-2.204
			l15.03-10.359c7.57-5.196,17.449-5.491,25.313-0.756c-0.33-3.403,0.074-6.842,1.188-10.075c2.737-7.933,3.41-13.521,3.063-16.625
			c-0.314-2.795-0.998-4.548-4.188-7.776c-0.31-0.063-1.363-0.144-2.313-0.222c-0.269,0.232-3.959,0.857-6.625,1.89
			c-3.556,1.378-6.344,2.708-6.344,2.708c-6.505,3.181-14.101,3.169-20.595-0.031l-39.188-19.364
			c-3.369-1.663-6.295-4.112-8.531-7.146l-1.688-2.269c-2.445,2.029-5.273,3.539-8.313,4.44
			c-26.422,7.695-50.774,6.149-73.063,4.503c-4.552,1.901-9.3,3.297-14.781,3.652c-8.154,0.526-17.851-2.573-23.938-7.494
			c-9.496-7.678-12.489-14.994-14.938-21.286C1763.427,509.781,1750.808,506.789,1734.794,506.471z"/>
		<path id="path3781_1_" fill="none" stroke="#FFFFFF" stroke-dasharray="1,1" d="M1732.825,529.993
			c-6.348-0.126-14.906,0.706-24.75,1.921c1.668,0.979,3.275,2.064,4.813,3.243l30.594,23.897
			c9.688,7.571,16.084,18.633,17.845,30.857c2.643,18.355,8.159,38.498,14.03,60.457l18.531,27.49
			c4.541,6.735,7.295,14.528,8,22.639l0.781,9.195c2.924,1.309,5.709,2.912,8.313,4.784l4.813,3.527l14.75-0.313
			c5.367-0.111,10.715,0.698,15.813,2.393l12.155,4.063c-2.547-10.092-3.002-21.541,1.063-32.905
			c5.022-14.052,13.936-22.851,22.625-28.402c0.256-1.451,0.58-2.891,0.969-4.313l4.063-14.267l-0.438-5.699
			c-1.963-25.562,16.475-48.116,41.75-51.072l16.656-1.952c0.717-0.068,1.436-0.12,2.156-0.157l-34.188-16.877
			c-1.601-0.791-3.154-1.675-4.656-2.645c-27.446,7.38-51.938,6.473-72.75,4.975c-4.948,1.644-10.475,2.856-16.938,3.275
			c-13.207,0.854-30.226-4.516-40.375-12.723c-12.369-9.999-17.097-18.131-19.781-24.623
			C1749.499,530.989,1743.229,530.199,1732.825,529.993z"/>
		<path id="path3790_1_" fill="none" stroke="#FFFFFF" stroke-dasharray="1,1" d="M1784.544,589.472
			c2.377,14.714,6.869,31.879,11.938,50.884l16.406,24.342c6.043,9.012,9.928,19.317,11.344,30.102l6.345-0.125
			c1.803-0.018,3.606,0.035,5.405,0.156c0.693-3.898,1.689-7.818,3.095-11.744c5.594-15.645,14.538-26.523,23.938-34.197
			l2.156-7.588l-0.125-1.479c-1.283-16.527,3.276-32.98,12.875-46.445c-14.733,1.068-27.844,0.494-39.594-0.313
			c-5.232,1.408-10.865,2.59-17.563,3.021C1809.708,596.8,1796.397,594.194,1784.544,589.472z"/>
		<path id="path3776_1_" fill="none" stroke="#FFFFFF" stroke-dasharray="1,1" d="M1734.106,490.191
			c-11.728-0.232-24.185,1.278-37.938,3.148l-31.656,16.594l-0.063,0.032l-0.313,0.157v-0.031c-3.525,2.001-6.807,2.452-9.594,2.865
			c-2.891,0.428-5.35,0.783-6.406,1.165c-0.035,0.013,0-0.011-0.031,0c0.019,0.413,0.25,1.976,1.375,4.943
			c10.773,10.793,12.625,25.405,14.625,38.006l23.031,9.415c0.627,0.253,1.215,0.592,1.75,1.007l30.594,23.898
			c1.496,1.178,2.482,2.893,2.75,4.785c3.449,23.962,10.281,47.527,16.688,71.636l22.375,33.188c0.711,1.049,1.142,2.264,1.25,3.527
			l3.281,37.784l19.375,4.063c1.016,0.215,1.975,0.645,2.813,1.26l15.688,11.43l28.156-0.565c0.838-0.016,1.674,0.111,2.469,0.377
			l39.563,13.162l46.438-1.039l-3.97-10.957c-0.836-2.303-0.485-4.875,0.938-6.865l3.125-4.377
			c-6.765-8.188-12.733-16.856-18.656-25.127c-4.25-5.934-6.092-12.5-4.03-18.264c2.061-5.763,6.946-8.888,11.469-10.517
			c4.521-1.629,9.215-2.071,13.594-1.731c4.125,0.322,8.143,0.781,11.813,4.629l0.75-4.912l-12.063-16.248
			c-1.385-1.854-1.824-4.258-1.188-6.486l6.094-21.35l-1-12.848c-0.299-3.956,2.557-7.445,6.469-7.903l16.656-1.952
			c2.592-0.308,5.15,0.797,6.719,2.896l2.875,3.873l6.063-9.289c0.519-0.804,1.188-1.5,1.97-2.047l15.03-10.359
			c2.775-1.909,6.482-1.677,9,0.565l20.406,18.106c1.521,1.342,2.426,3.255,2.5,5.29l0.344,10.297
			c2.974,1.039,6.683,2.465,9.688,4.063c7.418,3.94,16.082,10.623,19.625,13.381l7.719-2.015l-11.75-24.151l-19.125-11.839
			c-1.922-1.194-3.188-3.217-3.438-5.479l-2.656-23.9c-0.127-1.092-0.01-2.199,0.344-3.241c3.162-9.161,4.632-17.108,3.875-23.836
			c-0.752-6.688-3.379-12.482-9.905-18.671c-0.006-0.007-0.025,0.006-0.031,0c-3.088-2.801-8.244-3.908-13.813-3.873
			c-1.577,0.01-7.006,1.409-11.25,3.054c-4.243,1.645-7.625,3.274-7.625,3.274c-2.022,0.989-4.383,0.989-6.405,0l-39.188-19.364
			c-1.049-0.521-1.961-1.288-2.656-2.236l-14.78-20.058l-2.031,0.126l-6.156,12.375c-0.914,1.853-2.559,3.233-4.531,3.81
			c-24.676,7.188-48.25,5.309-71.625,3.59c-4.527,2.197-8.678,3.673-12.75,3.938c-4.723,0.306-9.453-1.245-12.781-3.938
			c-6.16-4.979-8.582-11.788-11.719-18.86C1771.556,495.379,1753.788,490.583,1734.106,490.191z"/>
	</g>
</g>
<g id="group-socialmedia">
	<g>
		<g id="path3782_1_" filter="url(#filter3784)">
			<path fill="#a6d1fc" fill-opacity="0.6" d="M1364.896,729.274l-7.395,0.726c0.755,1.695-1.26,2.977-1.334,4.833
				c-0.936,24.129,7.358,43.127,9.5,59.586c1.923,14.812,4.898,30.887-3.666,51.748c0.727,0.908-3.169,2.111-2.501,3.074
				c2.001,2.883,1.238,3.554,0.278,8.832c-0.963,5.279,8.415,10.328,6.783,12.586c-0.684,0.943-3.358,4.962-4.118,6.036
				l-5.276,10.806c1.289,3.19,5.862,7.582,4.333,10.666l-10.667,21.667c-0.907,1.842-2.98,3.843-4.666,5c0,0-8.972,7.6-16.857,14
				c-7.884,6.4-15.568,18.275-18.248,22.667c-2.72,4.451-2.143,18.481-4.293,28.592c-0.986,4.634-1.698,8.687-2.233,11.949
				l20.796,17.145c2.626,2.174,4.201,5.375,4.331,8.798c1.031,25.919,7.86,38.545,15.813,44.786
				c7.952,6.239,22.019,11.229,36.525,8.729c28.159-4.854,64.874-28.411,83.883-39.656c11.969-16.89,18.89-23.935,31.021-30.498
				c12.729-6.889,26.087-4.724,37.482-3.847c21.221,1.633,36.446,12.762,50.613,4.501c6.381-5.895,6.934-13.393,8.5-17
				c1.781-4.104,2.149-5.893,4-11.5c0.924-2.804,2.063,0.371,7.592-1.212c5.526-1.579,16.754,11.094,19.908,12.212
				c5.096,1.803,9.274-16.808,18.574-12.202c6.596-5.59,9.992-9.142,22.843-15.604c9.251-4.656,17.428,4.261,26.63-4.349
				c7.616-0.473,12.385-10.926,15.028-12.346c2.948-1.584,2.931-3.839,6.425-9c3.493-5.16,12.485-7.174,20.278-12.478
				c6.43-4.379,10.019-9.64,15.222-12.022c4.739-2.173-1.502-9.399,0-10.783c-23.536-11.455-32.434-14.707-38.5-32.217
				c-3.551-10.241-2.067-43.444-1.333-52.666c-2.278,1.252-4.087,3.738-6.63,4.664c-2.853,1.035-20.087,12.439-25.036,11.503
				c-12.308-2.331-9.641-8.284-14.5-13.5c-2.43-2.607-12.525-3.601-13.673-4.419c-0.066-0.05-2.023-0.21-2.077-0.248
				c-25.676,2.939-18.945,17.088-47.956,20.03c-0.399,0.043-0.802,0.067-1.203,0.069c-13.15-0.012-26.97-1.035-40.975-2.978
				c-1.006-0.142-10.826-1.089-12.773-0.433c-1.949,0.652-2.642,1.028-7.314,1.843c-4.673,0.813-3.942,2.512-9.681-0.024
				s-11.26-6.719-17.565-12.989c-1.804-1.793-4.79-2.681-11-3.187c-6.212-0.512-14.672-0.144-23.855-4.089
				c-14.491-6.224-26.213-16.345-35.235-22.479c-0.034-0.022-0.07-0.045-0.104-0.069c-4.775-3.304-42.801-42.964-53.931-59.229
				L1364.896,729.274L1364.896,729.274z"/>
		</g>
		<g id="path3782" filter="url(#filter3784)">
			<path fill="#b2d1f1" d="M1370.526,747.928l2.097,4.691c0.687,1.541,1.006,3.225,0.938,4.912
				c-0.851,21.936,2.897,35.01,4.844,49.973c1.748,13.465,1.221,28.361-6.564,47.326c0.66,0.826,1.551,1.803,2.158,2.678
				c1.818,2.621,4.029,7.48,3.156,12.279c-0.875,4.799-2.892,6.826-4.375,8.879c-0.621,0.857-1.467,2.205-2.158,3.182l3.908,9.666
				c1.172,2.9,1.047,6.172-0.344,8.976l-14.033,28.401c-0.824,1.674-2.062,3.104-3.594,4.156c0,0-6.207,4.258-13.376,10.076
				c-7.167,5.818-15.25,13.705-17.687,17.697c-2.473,4.047-5.858,15.024-7.813,24.215c-0.896,4.213-1.544,7.897-2.03,10.863
				l18.905,15.586c2.388,1.977,3.819,4.887,3.938,7.998c0.938,23.563,7.146,35.041,14.375,40.715
				c7.229,5.672,17.625,7.026,30.813,4.754c25.599-4.412,57.123-22.746,74.404-32.969c10.881-15.354,21.596-25.488,32.625-31.455
				c11.572-6.263,23.266-7.693,33.625-6.896c19.291,1.484,34.402,8.225,47.344,7.463c5.801-5.358,8.515-9.695,9.938-12.975
				c1.619-3.73,1.317-5.607,3-10.705c0.84-2.549,4.1-7.789,9.125-9.228c5.024-1.436,8.037-0.133,10.905,0.884
				c4.632,1.639,10.765,4.692,19.22,8.879c5.996-5.082,13.442-13.553,25.125-19.428c8.41-4.232,16.701-4.324,23.625-4.757
				c6.924-0.43,12.41-1.227,14.813-2.518c2.68-1.439,5.198-4.473,8.375-9.164c3.176-4.691,6.791-10.984,13.875-15.807
				c5.846-3.98,11.77-6.336,16.5-8.502c4.309-1.976,7.229-3.781,8.594-5.039c-21.396-10.414-34.109-26.056-39.625-41.974
				c-3.228-9.311-4.23-18.475-3.563-26.858c-2.071,1.139-4.127,2.213-6.438,3.055c-2.594,0.94-5.469,2.016-9.969,1.164
				c-11.188-2.119-15.52-9.775-19.938-14.517c-2.209-2.37-4.207-4.262-5.25-5.006c-0.061-0.045,0.018,0.002-0.031-0.032
				c-23.342,2.672-39.064,16.313-65.438,18.987c-0.363,0.039-0.729,0.062-1.094,0.063c-11.955-0.011-24.519-0.941-37.25-2.707
				c-0.914-0.129-1.386-0.062-3.156,0.535c-1.771,0.594-4.627,1.967-8.875,2.707c-4.248,0.739-9.814,0.323-15.031-1.982
				s-10.236-6.107-15.969-11.809c-1.64-1.63-4.354-2.437-10-2.896c-5.646-0.465-13.338-0.131-21.687-3.717
				c-13.174-5.658-23.83-14.859-32.032-20.437c-0.031-0.021-0.063-0.041-0.095-0.063c-19.188-13.275-31.377-28.051-49.028-53.846
				L1370.526,747.928L1370.526,747.928z"/>
		</g>
	</g>
	<g>
		<path id="island-socialmedia" fill="#36363D" stroke="#FFFFFF" stroke-width="3" d="M1465.883,1041.844
			c43.093-62.832,75.058-23.149,110.804-28.684c35.035-29.433-1.439-45.691,48.793-21.033c10.043-5.568,17.77-16.807,28.832-22.373
			c11.063-5.563,27.983-1.635,38.735-7.408c10.754-5.776,14.07-19.346,23.183-25.547c17.725-11.895,25.877-7.184,33.771-28.123
			c-51.479-18.117-52.242-61.932-42.092-79.899c10.149-17.968-21.24,11.85-30.216,10.149c-9.541-1.807-18.704-21.604-27.729-19.781
			c-26.896,2.826-43.205,16.771-66.032,19.089c-11.416-0.011-23.509-0.896-35.781-2.599c-12.275-1.703-16.289,12.979-36.885-7.504
			c-8.953-8.906-23.994-4.143-35.037-8.887c-11.045-4.742-21.291-13.367-30.246-19.457c-18.808-13.008-29.713-26.506-48.564-54.33
			l-35.885-9.898l-7.016,3.551l8.77,19.533c-1.811,46.734,16.094,58.215-3.508,99.431c11.147,13.217,8.453,8.858-0.877,23.971
			l6.139,15.092l-14.029,28.408c0,0-26.146,17.883-34.198,31.072c-8.13,13.313-12.277,45.276-12.277,45.276l23.677,19.531
			C1332.247,1123.045,1432.412,1061.664,1465.883,1041.844L1465.883,1041.844z"/>
		<path id="path3806_1_" fill="none" stroke="#FFFFFF" stroke-dasharray="1,1" d="M1363.34,743.359l5.313,11.871
			c0.457,1.018,0.67,2.129,0.625,3.243c-0.867,22.425,2.949,35.986,4.846,50.57c1.766,13.588,1.201,28.006-7.189,47.389
			c1.16,1.386,2.563,2.986,3.438,4.252c1.598,2.308,3.182,5.9,2.53,9.479c-0.647,3.576-2.264,5.383-3.719,7.398
			c-0.91,1.26-2.209,3.166-3.375,4.881l4.688,11.524c0.768,1.902,0.688,4.047-0.22,5.89l-14,28.401
			c-0.538,1.113-1.356,2.07-2.375,2.771c0,0-6.321,4.313-13.624,10.233c-7.302,5.922-15.556,13.767-18.53,18.642
			c-3.016,4.938-6.293,16.03-8.281,25.381c-1.218,5.723-1.931,10.086-2.406,13.192l20.531,16.939
			c1.581,1.293,2.536,3.209,2.625,5.26c0.961,24.189,7.413,36.939,15.749,43.484c8.338,6.545,19.961,7.846,33.722,5.479
			c26.967-4.641,59.127-23.553,76.248-33.69c10.844-15.479,21.334-25.359,31.905-31.08c10.906-5.898,21.754-7.215,31.625-6.455
			c18.9,1.455,34.566,8.75,49.063,7.338c6.84-6.09,10.129-11.139,11.844-15.084c1.852-4.26,1.748-6.863,3.125-11.02
			c0.689-2.078,3.029-5.769,6.656-6.804s6.08-0.104,8.688,0.818c4.555,1.613,11.084,4.881,20.844,9.699
			c7.017-5.16,14.529-14.57,26.313-20.498c7.432-3.738,15.309-3.916,22.25-4.347c6.94-0.432,12.93-1.129,16.344-2.961
			c3.604-1.936,6.465-5.573,9.688-10.328c3.223-4.752,6.625-10.6,12.844-14.83c5.402-3.676,11.146-5.971,15.969-8.188
			c4.736-2.176,8.398-4.34,10.219-6.297c0.324-0.428,1.246-2.246,2.063-3.842c-22.853-9.982-35.877-25.625-41.375-41.502
			c-4.062-11.724-4.312-23.216-2.156-32.937c-2.004,1.277-3.826,2.531-5.875,3.685c-2.219,1.248-4.399,2.379-6.688,3.211
			c-2.287,0.832-4.682,1.608-8.03,0.977c-9.002-1.707-13.455-8.572-17.938-13.383c-2.242-2.404-4.317-4.494-5.781-5.541
			c-1.465-1.047-1.688-0.799-1.28-0.883c-0.218,0.053-0.437,0.096-0.656,0.127c-24.789,2.604-40.735,16.512-66.063,19.082
			c-0.237,0.021-0.479,0.033-0.719,0.031c-11.771-0.011-24.174-0.902-36.75-2.646c-1.646-0.229-2.824,0.021-4.813,0.691
			c-1.988,0.672-4.643,1.903-8.313,2.551c-3.671,0.646-8.287,0.34-12.906-1.699c-4.619-2.041-9.342-5.549-14.875-11.053
			c-2.605-2.592-6.48-3.48-12.344-3.969c-5.865-0.489-13.117-0.263-20.498-3.433c-12.453-5.35-22.955-14.375-31.408-20.121
			c-0.021-0.01-0.041-0.021-0.063-0.03c-19.053-13.181-30.844-27.574-48.842-53.972L1363.34,743.359z"/>
		<path id="path3826_1_" fill="none" stroke="#FFFFFF" stroke-dasharray="1,1" d="M1386.248,763.859
			c-0.172,17.858,2.828,29.233,4.75,44.02c1.699,13.084,1.113,28.854-5.25,47.045c2.36,4.012,5.224,11.188,3.906,18.42
			c-1.212,6.646-3.349,9.388-5,11.461l1.813,4.474c2.302,5.631,2.072,11.991-0.625,17.442l-14.032,28.402
			c-1.609,3.238-4.021,6.002-7,8.029c0,0-5.894,4.037-12.72,9.571c-6.823,5.535-14.467,13.578-15.405,15.115
			c-0.979,1.604-4.701,12.254-6.563,21.002c-0.547,2.568-0.425,2.531-0.813,4.691l14.187,11.715
			c4.635,3.822,7.422,9.461,7.656,15.492c0.866,21.834,6.286,29.776,10.469,33.063c4.185,3.283,11.285,4.738,22.908,2.74
			c21.92-3.772,51.713-20.354,69.342-30.701c11.056-15.17,22.383-25.996,34.625-32.623c13.404-7.254,27.483-8.961,39.188-8.061
			c19.438,1.496,32.963,6.53,42.469,7.369c2.795-3.021,4.035-5.265,4.719-6.834c0.992-2.285,0.135-2.123,2.688-9.824
			c1.275-3.853,7.115-13.281,15.97-15.808c8.854-2.526,13.434-0.202,17.03,1.07c4.293,1.519,8.797,3.644,14,6.203
			c4.861-4.715,11.804-10.93,22.438-16.279c11.117-5.594,20.627-5.396,27.531-5.825c6.903-0.429,11.112-1.535,10.719-1.322
			c0.164-0.088,1.733-1.396,4.781-5.89c3.047-4.491,7.088-12.088,16.53-18.514c0.041-0.031,0.084-0.063,0.125-0.096
			c3.642-2.443,6.854-4.254,9.845-5.824c-14.195-10.725-23.703-24.115-28.438-37.787c-1.838-5.307-3.053-10.533-3.75-15.647
			c-2.299,0.319-5.014,0.344-8.5-0.314c-17.234-3.266-21.199-13.016-25.438-17.572c-0.652-0.7-0.621-0.602-1.156-1.133
			c-18.311,3.611-33.457,15.48-61.188,18.295c-0.707,0.066-1.416,0.099-2.125,0.095c-12.08-0.011-24.605-0.972-37.281-2.677
			c-1.201,0.424-4.457,2.045-10.188,3.056c-5.834,1.026-13.979,0.354-20.844-2.679c-6.863-3.028-12.75-7.639-19.031-13.885
			c1.023,1.019,1.353,0.414-3.719,0c-5.072-0.418-13.812,0.221-24.812-4.504c-15.172-6.516-26.258-16.285-33.752-21.381
			c-0.041-0.031-0.082-0.063-0.125-0.094c-19.479-13.478-32.645-29.144-49.436-53.373L1386.248,763.859L1386.248,763.859z"/>
		<path id="path3835_1_" fill="none" stroke="#FFFFFF" stroke-dasharray="1,1" d="M1408.717,817.986
			c0.072,10.543-1.303,22.631-4.875,35.36c2.314,6.459,4.029,14.461,2.563,22.548c-0.781,4.293-1.832,7.395-2.906,10.045
			c2.674,9.338,1.781,19.348-2.5,28.055l-14.031,28.402c-2.953,5.987-7.389,11.104-12.875,14.862c0,0-5.322,3.648-11.533,8.691
			c-4.629,3.756-9.651,9.283-11.219,10.735c-0.002,0.007,0.002,0.025,0,0.031c-0.006,0.006-0.025,0.025-0.031,0.031
			c-0.41,1.438-1.649,5.404-2.875,9.479l5.625,4.63c8.545,7.045,13.688,17.442,14.125,28.561
			c0.709,17.846,4.117,20.002,3.531,19.459c0.525,0.08,2.912,0.576,9.189-0.504c15.914-2.738,42.615-16.668,60.498-26.922
			c11.51-15.121,23.91-26.869,38.094-34.543c16.605-8.984,34.82-11.222,48.875-10.14c13.902,1.07,24.119,3.021,31.25,4.66
			c0.297-0.934,0.123-0.555,0.531-1.795c2.014-6.111,12.34-22.883,27.906-27.332c15.565-4.449,22.856-0.303,27.719,1.416
			c1.752,0.621,3.125,1.349,4.688,1.984c4.68-3.535,10.268-7.32,18-11.209c15.832-7.963,27.521-7.228,34.375-7.652
			c1.365-0.084,1.547-0.209,2.5-0.346c2.182-3.396,5.59-9.375,12.656-15.934c-7.785-9.22-13.633-19.273-17.188-29.535
			c-0.586-1.691-1.009-3.336-1.5-5.008c-15.73-3.513-23.095-9.679-27.188-14.861c-12.008,4.811-26.646,12.637-52.906,15.303
			c-1.299,0.129-2.602,0.193-3.905,0.189c-11.359-0.011-23.043-0.861-34.845-2.269c-2.139,0.74-5.293,1.642-9.563,2.394
			c-8.601,1.514-21.271,0.395-31-3.904c-7.392-3.266-13.418-7.521-19.063-12.533c-4.754-0.133-14.107,0.32-28.344-5.793
			c-18.65-8.01-30.457-18.729-36.719-22.986c-0.082-0.063-0.166-0.125-0.25-0.188
			C1419.469,827.178,1413.953,822.74,1408.717,817.986z"/>
		<path id="path3844_1_" fill="none" stroke="#FFFFFF" stroke-dasharray="1,1" d="M1423.31,856.781
			c1.59,7.307,2.241,15.379,0.78,23.395c-0.537,2.957-1.16,5.51-1.813,7.873c1.945,12.119,0.089,24.545-5.311,35.551l-14.031,28.402
			c-4.483,9.07-11.211,16.824-19.531,22.514c0,0-4.754,3.263-10.282,7.746c-0.354,0.287-0.677,0.66-1.031,0.978
			c7.869,9.223,12.715,20.672,13.877,32.778c11.541-4.428,27.271-12.334,40.279-19.522c12.157-15.306,25.805-27.92,41.938-36.652
			c20.213-10.938,43.108-13.725,59.813-12.438c7.73,0.594,14.004,1.272,19.438,1.981c7.24-10.102,18.748-21.592,33.344-25.756
			c18.337-5.231,28.479-2.49,35.095,0c3.532-2.096,7.35-4.258,11.78-6.486c13.74-6.911,24.191-8.629,31.906-9.194
			c-2.84-4.73-5.264-9.547-7.281-14.453c-6.985-2.262-12.342-4.896-16.405-7.588c-9.982,4.205-24.188,8.938-46.563,11.209
			c-1.963,0.194-3.934,0.289-5.906,0.283c-10.856-0.011-21.846-0.806-32.844-1.984c-2.252,0.604-4.906,1.223-8.156,1.795
			c-11.723,2.064-29.438,0.438-42.405-5.289c-7.154-3.16-13.037-6.949-18.345-11.053c-6.266-0.31-15.719-1.543-28.844-7.181
			C1439.144,867.82,1430.16,861.846,1423.31,856.781z"/>
	</g>
</g>
<g id="group-linkbuilding">
	<g id="path5597" filter="url(#filter5593)">
		<path fill="#b4d1ef" d="M1151.188,139.262c-15.612-0.55-34.813,5.137-51.813,10.706c-8.5,2.784-16.46,5.518-23.25,7.399
			c-5.987,1.659-10.943,2.668-15.031,2.268l-9.375,14.327l4.75,9.667c0.341,0.686,0.33,1.496-0.03,2.172l-6.97,12.91l-0.03,0.063
			l-0.063,0.126l-4.594,10.801l12.125,28.812v0.031c3.116,7.266,3.323,13.506,2.375,20.656c7.316,9.791,15.677,18.734,24.25,27.678
			c0.331,0.346,0.549,0.785,0.625,1.26l2.625,16.09c7.351,4.1,14.16,3.209,23.405,2.896c0.276-0.006,0.552,0.037,0.813,0.127
			c13.198,4.236,26.098,10.859,38.719,12.564c0.009,0,0.022-0.003,0.031,0c5.652,0.651,16.872-0.668,18.938-0.914l4.438-11.558
			c0.188-0.483,0.526-0.895,0.969-1.164l9.219-5.764c6.011-14.086,11.471-28.406,17-42.76
			c-4.046-22.709-14.776-42.516-25.219-63.449c-0.007-0.014-0.023-0.019-0.031-0.032c-2.865-5.393-3.628-9.435-2.78-12.752
			c0.849-3.326,3.179-5.355,5.155-7.054c1.978-1.699,3.673-3.132,4.531-5.038c0.859-1.906,1.132-4.557-0.5-9.32
			c-2.601-7.592-6.63-12.51-11.75-15.744C1164.6,141.034,1158.284,139.512,1151.188,139.262L1151.188,139.262z"/>
	</g>
	<g id="path5597_1_" filter="url(#filter5593)">
		<path fill="#b4d1ef" fill-opacity="0.6" d="M1146.08,127.25c-15.612-0.605-34.813,5.651-51.813,11.776c-8.5,3.063-16.46,6.07-23.25,8.14
			c-5.987,1.824-10.943,2.935-15.031,2.494l-9.375,15.76l4.75,10.634c0.341,0.755,0.33,1.646-0.03,2.389l-6.97,14.201l-0.03,0.069
			l-0.063,0.139l-4.594,11.881l12.125,31.693v0.034c3.116,7.993,3.323,14.856,2.375,22.722c7.316,10.77,15.677,20.607,24.25,30.446
			c0.331,0.38,0.549,0.863,0.625,1.386l2.625,17.699c7.351,4.51,14.16,3.53,23.405,3.185c0.276-0.006,0.552,0.041,0.813,0.14
			c13.198,4.66,26.098,11.945,38.719,13.821c0.009,0,0.022-0.003,0.031,0c5.652,0.717,17.542-5.594,19.608-5.865l5.5-6.494
			c0.188-0.532,0.308-1.454,0.75-1.75l15.5-14.25c6.011-15.495,8.784-24.055,14.313-39.844c1.109-24.256-10.371-43.38-20.813-66.406
			c-0.007-0.016-1.351-3.485-1.358-3.5c-2.865-5.932-4.507-6.866-3.659-10.516c0.849-3.658,0.541-3.616,2.518-5.484
			c1.978-1.869,4.613-5.812,5.472-7.908c0.859-2.097,2.16-6.852,0.528-12.092c-2.601-8.351-13.269-15.437-18.389-18.994
			C1159.491,129.2,1153.176,127.525,1146.08,127.25L1146.08,127.25z"/>
	</g>
	<g>
		<path id="island-linkbuilding" fill="#36363D" stroke="#FFFFFF" stroke-width="3" d="M1058.616,152.233l-10.907,16.61l5.32,10.854
			c-4.834,7.973-8.489,16.464-12.146,25.014c6.694,16.02,16.907,34.262,14.628,50.291c7.549,10.219,16.226,19.395,25.01,28.557
			l2.829,17.313c8.376,5.117,16.13,3.979,25.604,3.659c24.346,8.504,34.422,14.785,60.058,11.61l4.979-12.915l9.878-6.159
			c6.241-14.574,11.835-29.396,17.535-44.18c-4.049-23.464-15.06-43.644-25.572-64.725c-10.957-20.563,13.711-24.933,6.522-33.864
			C1156.377,122.011,1078.823,156.543,1058.616,152.233L1058.616,152.233z"/>
		<path id="path3801" fill="none" stroke="#FFFFFF" stroke-dasharray="1,1" d="M1145.829,163.853
			c-12.706-0.226-29.943,2.963-45.844,6.329c-7.95,1.684-15.571,3.362-22.845,4.534c-0.803,0.13-1.589,0.187-2.375,0.315
			c1.484,5.889,0.55,12.133-2.594,17.318c-2.313,3.814-4.477,8.254-6.625,12.973c5.5,11.23,12.425,25.278,12.75,42.95
			c5.513,6.734,11.607,13.439,18.375,20.499c3.156,3.306,5.238,7.501,5.969,12.028l0.375,2.268c1.63-0.07,2.363-0.094,5.188-0.189
			c2.75-0.095,5.494,0.321,8.094,1.229c19.494,6.809,25.889,10.848,37.094,11.272c1.803-4.342,4.904-8.008,8.875-10.485l3.656-2.268
			c4.146-10.017,8.19-20.286,12.219-30.764c-3.979-16.631-12.464-33.039-22-52.146c-0.093-0.187-0.188-0.348-0.28-0.535l0.03-0.031
			c-4.347-8.428-6.285-18.392-4.625-27.08c0.547-2.856,1.428-5.321,2.406-7.62C1151.444,164.115,1148.865,163.907,1145.829,163.853
			L1145.829,163.853z"/>
		<path id="path3810" fill="none" stroke="#FFFFFF" stroke-dasharray="1,1" d="M1131.423,184.289
			c-8.264,1.072-17.783,2.795-27.313,4.817c-3.399,0.721-6.875,1.338-10.281,2.047c-1.036,3.854-2.604,7.543-4.656,10.958
			c-0.387,0.638-0.795,1.592-1.188,2.298c4.44,9.104,8.837,20.806,10,35.613c3.91,4.438,8.183,9.051,13,14.075
			c2.539,2.664,4.724,5.649,6.5,8.88c1.81,0.354,3.595,0.828,5.344,1.417c11.818,4.129,17.432,6.688,21.875,8.313
			c1.612-1.575,3.348-3.018,5.188-4.314c2.394-5.932,4.821-11.986,7.22-18.2c-3.733-11.823-10.272-25.102-18.531-41.659
			c-0.185-0.367-0.347-0.667-0.531-1.039l0.063-0.031C1134.646,200.646,1132.334,192.56,1131.423,184.289L1131.423,184.289z"/>
		<path id="path3774" fill="none" stroke="#FFFFFF" stroke-dasharray="1,1" d="M1146.142,146.22
			c-15.38-0.272-33.504,3.313-49.53,6.707c-8.015,1.696-15.497,3.318-22.063,4.376c-4.788,0.771-9.006,1.311-12.906,1.134l-7,10.675
			l3.781,7.715c0.907,1.861,0.801,4.062-0.281,5.825c-4.113,6.784-7.391,14.216-10.688,21.884
			c6.217,14.258,15.346,31.004,14.125,48.24c6.992,9.215,14.986,17.766,23.281,26.419c0.843,0.883,1.398,2.003,1.594,3.212
			l2.313,14.169c5.745,2.607,11.317,2.057,20,1.764c0.732-0.029,1.463,0.078,2.156,0.315c23.452,8.19,32.151,13.687,53.875,11.649
			l3.656-9.445c0.47-1.229,1.325-2.27,2.438-2.96l8.188-5.103c5.651-13.321,10.865-26.896,16.125-40.557
			c-4.036-21.545-14.315-40.739-24.625-61.402c-0.025-0.051-0.037-0.106-0.063-0.157c-3.154-5.991-4.052-11.714-3.125-16.563
			c0.936-4.892,3.479-8.53,5.688-11.241c2.095-2.57,3.754-4.433,4.313-5.29C1170.794,149.692,1159.914,146.464,1146.142,146.22z"/>
	</g>
</g>
<g id="group-cpc">
	<g id="path3787" filter="url(#filter3783)">
		<path fill="#b2d1f1" d="M907.788,378.733c-2.256,0.037-4.248,0.239-6.018,0.665c-14.275,3.431-26.463,9.905-40.434,17.773
			c-7.244,4.081-10.82,12.926-12.57,26.538c-1.437,11.17-1.461,24.127-2.268,36.589c16.849,8.487,28.704,20.339,42.082,33.142
			c0.538-0.326,1.104-0.604,1.689-0.831l5.234-2.076c4.322-1.717,9.25-0.521,12.324,2.99l4.205,4.816l11.211,7.602l6.224-0.251
			c1.33-0.045,2.656,0.151,3.916,0.582c8.505,2.845,18.239,7.003,24.481,17.608c1.021,1.721,1.563,3.686,1.566,5.69v6.894
			c3.668,4.643,7.457,9.562,10.716,15.615c1.385,2.567,1.711,5.581,0.906,8.39l-3.709,12.955
			c6.048,7.075,11.396,15.01,14.716,25.253l0.617,0.664l0.494-0.291c2.396-12.223,4.93-24.785,9.52-36.589
			c4.842-12.442,12.501-24.166,24.482-32.104l1.896-2.905c-0.932-11.802-3.522-29.713,8.285-44.938
			c4.902-6.32,11.297-11.961,16.033-17.858c4.734-5.896,6.652-10.757,6.223-13.538c-0.383-2.475-0.486-2.528-0.494-2.658
			c-2.674-1.277-9.306-4.673-16.487-13.207c-2.315-2.753-2.992-2.753-4.038-2.907c-1.047-0.154-3.277,0.091-6.801,1.038
			c-7.047,1.896-19.83,6.318-33.427-0.333c-6.611-3.233-7.54-7.537-8.902-10.881c-1.364-3.343-2.324-6.662-3.298-9.76
			c-0.972-3.099-1.946-5.939-2.762-7.642c-0.385-0.805-0.764-1.165-0.865-1.287l-15.002-7.892c-0.01-0.004-0.032,0.005-0.041,0
			C946.566,389.948,923.291,378.483,907.788,378.733L907.788,378.733z"/>
	</g>
	<g id="path3787_1_" filter="url(#filter3783)">
		<path fill="#2568ac" fill-opacity="0.4" d="M900.328,360.628c-2.611,0.043-4.917,0.277-6.967,0.77c-16.078,3.864-30.521,11.403-46.806,20.575
			c-8.386,4.725-12.526,14.963-14.552,30.721c-1.663,12.93-1.691,27.93-2.625,42.356c0,17.55,14.112,29.831,36.518,41.517
			c0.623-0.377,0.125,1.91,0.803,1.647l15,13.667c2.333,13.667,4.46,11.808,9.138,16.567l9.333,1.333l2.014-11.325l8.182-0.575
			c1.54-0.052,13.542,5.309,15,5.808c9.846,3.293,7.046-7.185,14.272,5.093c1.183,1.992,7.335,5.347,7.338,7.667l0.195,10.667
			c4.247,5.374,2.894,8.326,6.666,15.333c1.603,2.972-4.15,9.749-5.082,13l13.415,14.667c7.001,8.191,14.49,15.476,18.333,27.333
			l14.667-7.667l0,0c2.773-14.149,0.05-21.54,5.363-35.204c5.605-14.404,13.1-26.274,26.97-35.463l5-5.667
			c-1.078-13.662-1.002-30.709,12.667-48.333c5.675-7.317,10.042-15.506,15.524-22.333c5.48-6.826,4.309-15.138,3.812-18.358
			c-0.443-2.864-0.563-2.927-0.572-3.077c-3.095-1.479-10.772-5.409-19.086-15.289c-2.681-3.187-3.464-3.187-4.675-3.365
			c-1.211-0.179-13.591-3.674-17.67-2.578c-8.158,2.196-11.26,9.033-27,1.333c-7.654-3.743-7.089-6.847-8.666-10.718
			c-1.58-3.87-3.25-7.712-4.377-11.298c-1.125-3.587-5.232-6.694-6.176-8.664c-0.445-0.932-0.884-1.349-1.001-1.491l-17.367-9.135
			c-0.011-0.004-0.037,0.006-0.047,0C945.219,373.61,918.274,360.338,900.328,360.628L900.328,360.628z"/>
	</g>
	<path id="island-cpc" fill="#36363D" stroke="#FFFFFF" stroke-width="2.2748" d="M855.223,389.292
		c14.103-7.944,27.358-15.032,43.279-18.859c21.601-5.191,51.195,10.816,63.377,17.11l16.095,8.417
		c7.482,3.915,9.055,26.236,14.512,28.907c19.37,9.475,33.352-12.208,47.839,5.009c13.897,16.516,17.091,5.815,19.494,21.357
		c2.413,15.604-17.015,30.365-24.453,39.956c-9.154,11.803-6.275,28.319-5.716,41.091l-4.999,7.63
		c-21.898,12.594-26.942,40.55-32.369,68.162l-12.362,6.995l-8.081-8.499c-3.171-12.021-9.379-19.731-17.436-28.554l5.373-18.788
		c-3.354-6.229-7.721-11.656-12.092-17.16l-0.014-10.679c-4.85-8.237-9.905-9.871-18.44-12.727l-9.77,0.392l-15.5-10.522
		l-5.123-5.832l-5.218,2.067l6.285,14.607c-2.122,9.812-6.505,9.636-11.658,4.181l-2.215-14.769
		c-18.318-17.075-30.63-31.112-51.713-39.719C837.31,442.385,831.812,402.479,855.223,389.292L855.223,389.292z"/>
	<path id="path3807" fill="none" stroke="#FFFFFF" stroke-width="0.7582" stroke-dasharray="0.7582,0.7582" d="M907.253,377.529
		c-2.442,0.04-4.68,0.3-6.719,0.789c-14.753,3.545-27.296,10.178-41.299,18.065c-8.532,4.806-12.336,14.944-14.138,28.947
		c-1.568,12.193-1.511,26.106-2.474,38.997c18.2,8.69,30.491,21.362,45.298,35.426c0.823-0.935,1.854-1.662,3.008-2.118l5.235-2.076
		c3.077-1.229,6.589-0.382,8.778,2.117l4.492,5.15l12.489,8.473l7.213-0.291c0.936-0.044,1.87,0.084,2.762,0.374
		c8.499,2.843,16.873,6.282,22.71,16.196c0.701,1.21,1.072,2.587,1.072,3.987l0.04,7.932c3.862,4.867,7.809,9.988,11.13,16.156
		c0.991,1.826,1.23,3.978,0.659,5.979l-4.162,14.66c6.5,7.426,12.146,15.411,15.456,26.12l2.803,2.947l3.914-2.2
		c2.479-12.65,5.021-25.607,9.646-37.499c4.773-12.271,12.193-23.465,23.824-30.94l2.844-4.362
		c-0.812-11.95-3.569-29.488,7.542-43.814c4.558-5.874,11.048-11.648,15.991-17.816c4.943-6.167,7.537-11.833,6.883-16.072
		c-0.502-3.243-1.021-4.335-1.031-4.402c-2.097-0.985-9.001-3.95-16.649-13.04c-2.695-3.201-4.22-3.722-6.018-3.987
		c-1.8-0.265-4.456,0.146-8.079,1.121c-7.244,1.949-18.734,5.933-31.201-0.166c-5.098-2.493-6.069-6.069-7.337-9.179
		c-1.268-3.108-2.232-6.382-3.216-9.509c-0.98-3.129-2.016-6.112-2.967-8.099c-0.951-1.987-1.934-2.586-1.195-2.201l-16.074-8.431
		c-0.009-0.004-0.031,0.004-0.04,0C947.588,389.156,924.137,377.257,907.253,377.529z"/>
	<path id="path3816" fill="none" stroke="#FFFFFF" stroke-width="0.7582" stroke-dasharray="0.7582,0.7582" d="M907.005,393.021
		c-1.521,0.024-2.69,0.177-3.338,0.332c-12.386,2.977-23.357,8.704-37.178,16.488c-2.124,1.197-4.631,5.005-6.182,17.069
		c-1.003,7.795-1.26,17.501-1.689,27.659c12.367,7.408,22.23,16.278,31.777,25.417c9.114-3.352,19.336-0.77,25.801,6.52l3.133,3.53
		l6.637,4.528l1.979-0.083c2.866-0.118,5.729,0.291,8.449,1.204c8.491,2.841,23.553,9.985,31.365,23.256
		c2.146,3.662,3.285,7.833,3.297,12.086v2.492c3.088,4.047,6.289,8.493,9.275,14.038c1.01,1.909,1.759,3.95,2.225,6.063
		c4.91-10.684,11.942-21.263,22.298-29.402c-1.181-12.192-1.903-30.679,11.54-48.011c6.249-8.056,12.299-13.21,16.158-18.024
		c0.918-1.146,0.969-1.47,1.441-2.242c-3.177-2.301-6.544-5.213-9.85-8.722c-0.008-0.007-0.035,0.007-0.042,0
		c-6.253,1.692-24.15,7.688-42.246-1.163c-12.628-6.177-13.336-13.17-15.085-17.443c-1.75-4.271-2.729-7.816-3.669-10.798
		c-0.554-1.753-0.87-2.387-1.278-3.488l-11.045-5.813c-0.047-0.024-0.118-0.059-0.164-0.082
		C939.351,402.623,916.984,392.858,907.005,393.021z"/>
	<path id="path3825" fill="none" stroke="#FFFFFF" stroke-width="0.7582" stroke-dasharray="0.7582,0.7582" d="M906.84,409.259
		c-9.241,2.221-18.375,6.73-30.335,13.373c-0.025,0.544-0.508,2.07-1.113,6.77c-0.592,4.611-0.805,10.729-1.03,17.4
		c7.554,5.281,14.06,10.909,20.155,16.571c12.51-1.127,24.803,3.826,33.097,13.332l1.689,1.909l0.948,0.665
		c3.604,0.159,7.167,0.814,10.593,1.952c8.353,2.793,30.091,13.453,39.897,30.109c1.832,3.115,3.233,6.47,4.162,9.967
		c0.957-1.039,1.987-2.07,3.009-3.074c-0.687-13.416,1.027-32.473,15.621-51.29c0.016-0.02,0.027-0.021,0.041-0.041
		c-8.81,0.153-18.95-1.143-29.099-6.105c-20.102-9.832-20.535-20.271-22.751-25.707c-1.682-4.124-2.369-6.619-3.133-9.136
		l-5.481-2.865l-0.207-0.125c-11.592-5.954-32.992-13.674-36.188-13.622C906.112,409.352,906.218,409.408,906.84,409.259
		L906.84,409.259z"/>
</g>
<g id="group-services">
	<g filter="url(#filter5593)">
		<path id="path-209387" fill="#9fc4ea" d="M867.608,818.249c4.782-53.78-23.094-71.62,32.892-75.415
			c16.043,16.976,37.018,8.178,54.774,6.582c8.728-0.783,49.218-27.096,54.271-30.591c11.719-3.648,107.55-36.877,121.288-43.658
			l10.558,19.334c17.805,18.921,36.101,37.097,55.401,54.434l6.451,18.899l-10.898,3.854l-6.846,6.479l-10.666,6.667
			c-20.613,2.186-9.945,8.7-1.998,18.621l-1.252,11.31c-6.975,12.274-15.049,13.844-24.779,12.756l-16.699-1.911
			c-4.184-0.48-4.389-1.535-12.903-3.441l-10.035,1.646c-6.15,0.452-10.492,2.201-15.333,5.687l-18.655-1.979l-9.345-6.084
			c-6.454,0.783-4.063,9.614-2.825,13.775c10.397,27.146-12.663,33.128-29.509,46.621l-22.667,21.333
			c4.042,37.202,35.663,41.009,6.333,56.334v2c7.736,12.148-4.93,0.129,6.667,8l9.667,14l16.667,19.666l2,18.334l-30.771-5.895
			l-23.53-3.062l-18.217-9.941l-16.318,3.441l-9.488-10.323l0.759-19.121l-12.144-13.386l-15.182-11.09l-49.318-16.472l-0.38-8.032
			L858.5,927.24l-15.939-0.384c4.888-11.208,14.942-18.462,23.529-26.769l7.211-16.825l9.867-17.975l4.934-16.442L867.608,818.249z"
			/>
	</g>
	<g>
		<path id="island-services" fill="#36363D" stroke="#FFFFFF" stroke-width="3" d="M872.435,817.293
			c4.782-53.78-27.143-68.479,28.843-72.273c16.043,16.976,41.066,5.036,58.823,3.44c8.728-0.783,49.218-27.096,54.271-30.591
			c11.719-3.648,103.53-32.99,117.27-39.771l7.97,17.975c17.805,18.921,37.881,35.525,57.182,52.862l6.451,13.003l-6.072,8.795
			l-9.867-1.528l-6.832,10.706c-20.612,2.186-15.536,12.258-7.59,22.179l-0.379,11.09c-6.975,12.274-11.143,14.474-20.873,13.386
			l-16.699-1.911c-4.184-0.48-4.389-1.535-12.903-3.441l-10.246-2.295c-6.15,0.452-9.959,3.78-14.801,7.266l-18.977,0.383
			l-12.145-12.237c-6.454,0.783-7.69,11.9-6.452,16.062c10.397,27.146-8.973,33.239-25.818,46.732l-28.072,22.482
			c4.042,37.202,34.071,44.017,4.742,59.342l-19.813-13.896c7.736,12.148,18.764,18.898,30.36,26.77l9.108,13.385l14.802,15.68
			l5.313,17.59l-25.808-3.823l-23.53-3.062l-18.217-9.941l-16.318,3.441l-9.488-10.323l0.759-19.121l-12.144-13.386l-15.182-11.09
			l-49.318-16.472l-0.38-8.032l-17.078-0.381l-15.939-0.384c4.888-11.208,14.942-18.462,23.529-26.769l7.211-16.825l9.867-17.975
			l4.934-16.442L872.435,817.293z"/>
	</g>
	<path id="path3822_1_" fill="none" stroke="#FFFFFF" stroke-dasharray="1,1" d="M1127.987,688.715
		c-4.338,1.692-9.455,3.563-16,5.856c-10.797,3.787-23.967,8.235-37.063,12.563c-25.722,8.5-50.385,16.332-56.969,18.39
		c-3.643,2.476-13.753,9.073-25.125,15.9c-6.003,3.604-12.15,7.16-17.5,9.919c-5.35,2.761-8.801,4.929-14.219,5.416
		c-7.519,0.676-18.424,4.054-30,5.229c-10.487,1.063-22.512-0.232-32.125-8.345c-11.57,0.985-18.588,2.648-21.188,4.094
		c-1.42,0.789-1.591,1.14-1.813,1.604s-0.478,1.479-0.406,3.464c0.271,7.663,6.726,26.103,4.906,52.964l19.063,28.466
		c1.298,1.919,1.666,4.325,1,6.55l-4.938,16.437c-0.167,0.517-0.386,1.013-0.656,1.48l-9.531,17.318l-0.063,0.156l-7.125,16.657
		c-0.403,0.936-0.988,1.781-1.72,2.487c-5.241,5.068-10.271,9.456-14.438,13.918l1.719,0.031h0.031l17.031,0.378
		c4.02,0.078,7.288,3.289,7.469,7.337l0.125,2.738l44.375,14.801c0.739,0.258,1.436,0.63,2.063,1.103l15.156,11.083
		c0.418,0.296,0.805,0.634,1.156,1.008l12.156,13.384c1.363,1.496,2.083,3.479,2,5.511l-0.625,15.933l4.375,4.786l12.125-2.551
		c1.763-0.374,3.601-0.105,5.188,0.756l17,9.289l22.094,2.865c0.043,0.01,0.084,0.02,0.125,0.031l13.906,2.046l-1.281-4.219
		l-13.563-14.391c-0.274-0.295-0.525-0.609-0.75-0.944l-8.313-12.187c-11.068-7.458-22.771-14.789-31.281-28.15
		c-2.255-3.585-1.199-8.332,2.357-10.604c2.576-1.646,5.875-1.586,8.393,0.148l15.844,11.116c3.479-2.271,4.589-3.859,4.688-4.125
		c0.129-0.349,0.209-1.144-1.655-4.692c-3.729-7.097-13.513-20.021-15.75-40.62c-0.288-2.629,0.787-5.221,2.844-6.863l28.063-22.482
		c9.1-7.287,17.859-12.306,22.094-17.256c4.232-4.949,5.9-8.791,1.344-20.688c-0.069-0.187-0.132-0.375-0.188-0.565
		c-1.36-4.57-1.036-8.746,0.344-13.604c0.689-2.428,1.707-4.979,3.656-7.336c1.948-2.359,5.164-4.494,8.875-4.943
		c2.322-0.291,4.65,0.51,6.313,2.173l9.875,9.95l13.438-0.283c4.174-3.088,9.115-6.723,16.625-7.273
		c0.744-0.058,1.492-0.004,2.22,0.157l10.25,2.299c4.532,1.016,7.219,1.89,8.875,2.456c1.655,0.564,1.764,0.68,3.25,0.851
		l16.688,1.921v-0.031c4.188,0.468,5.365,0.217,6.625-0.567c1.119-0.693,3.148-3.104,5.845-7.557l0.219-6.108
		c-3.746-4.675-7.396-9.731-6.813-17.192c0.338-4.327,3.308-8.789,7.156-11.146c2.908-1.78,6.412-2.755,10.344-3.433l5.031-7.871
		c1.629-2.547,4.592-3.892,7.563-3.433l5.155,0.817l0.781-1.165l-3.75-7.589c-18.822-16.854-38.66-33.277-56.563-52.302
		c-0.596-0.628-1.082-1.35-1.438-2.141L1127.987,688.715z"/>
	<path id="path3831_1_" fill="none" stroke="#FFFFFF" stroke-dasharray="1,1" d="M1117.987,710.474
		c-0.248,0.086-0.402,0.133-0.656,0.221c-10.975,3.852-24.191,8.31-37.343,12.657c-24.67,8.156-46.548,15.108-54.688,17.665
		c-5.147,3.436-13.37,8.729-23.75,14.957c-6.208,3.725-12.577,7.384-18.531,10.454c-5.955,3.068-7.768,6.211-21,7.399
		c-4.229,0.38-15.547,3.785-29.75,5.228c-10.214,1.037-24.054-0.058-36.53-6.519c1.6,8.672,3.239,21.09,2.78,36.59l15.595,23.333
		c4.368,6.529,5.595,14.688,3.344,22.23l-4.906,16.437c-0.534,1.793-1.257,3.525-2.155,5.164l-9.25,16.815l-5.188,12.091
		c2.994,2.336,5.447,5.302,7.188,8.69l34.78,11.619c2.525,0.846,4.907,2.078,7.063,3.652l15.188,11.084
		c1.393,1.022,2.68,2.185,3.844,3.464c0.271-11.458,7.887-21.414,18.813-24.593c-1.606-5.271-2.907-11.097-3.594-17.413
		c-0.982-8.969,2.677-17.814,9.688-23.428l28.063-22.45c0.014-0.013,0.018-0.021,0.031-0.032
		c10.078-8.07,17.318-12.888,18.875-14.264c-0.341-0.592-0.625-1.068-1.156-2.456c-0.243-0.622-0.462-1.252-0.656-1.891
		c-3.134-10.521-2.146-15.636,0.219-24.024c1.184-4.193,2.991-8.977,7.219-14.106c4.229-5.13,12.034-10.46,20.813-11.523
		c7.938-0.966,15.876,1.798,21.531,7.493l4.28,4.313h0.156c5.055-3.196,12.035-6.664,21.188-7.337
		c2.535-0.186,5.084,0.008,7.563,0.566l10.25,2.299v-0.031c5.199,1.163,9.084,2.441,10.781,3.022
		c0.152,0.052-0.029-0.002,0.063,0.031l2.188,0.252c-0.771-3.561-1.117-7.771-0.719-12.879c0.776-9.917,8.375-20.926,15.969-25.568
		c2.908-1.778,5.678-2.931,8.438-3.873l0.563-0.882c-14.676-12.895-29.773-26.181-44.281-41.596
		C1119.464,712.439,1118.69,711.48,1117.987,710.474z"/>
	<path id="path3840_1_" fill="none" stroke="#FFFFFF" stroke-dasharray="1,1" d="M1113.831,726.784
		c-9.365,3.224-19.153,6.562-29.5,9.98c-23.89,7.897-43.876,14.266-52.969,17.13c-5.6,3.696-12.976,8.393-22.656,14.201
		c-6.36,3.816-12.898,7.62-19.313,10.928c-6.414,3.304-6.946,7.154-26.125,8.88c-1.728,0.154-13.388,3.548-29.595,5.194
		c-5.958,0.604-13.405,0.541-21.344-0.725c0.217,3.991,0.315,8.169,0.281,12.596l13.125,19.617
		c6.714,10.032,8.605,22.573,5.155,34.164l-4.905,16.438c-0.82,2.755-1.932,5.416-3.313,7.935l-9.094,16.531l-1.031,2.456
		l29.781,9.981c3.89,1.308,7.558,3.207,10.875,5.637l4.281,3.117c2.533-3.565,5.625-6.692,9.156-9.258
		c-0.524-2.728-1.029-5.451-1.345-8.345c-1.505-13.792,4.124-27.396,14.906-36.022l28.063-22.45c0.015-0.013,0.017-0.021,0.03-0.031
		c4.741-3.797,8.089-6.337,11.125-8.628c-2.594-11.194-1.307-17.173,1.406-26.797c1.562-5.538,3.944-12.034,9.906-19.271
		c5.962-7.236,17.304-15.031,29.938-16.563c10.763-1.293,21.587,1.864,30,8.754c5.063-2.096,11.027-3.816,17.813-4.314
		c3.885-0.285,7.791,0,11.594,0.852l6.219,1.385c1.972-9.877,8.09-20.018,15.095-26.922
		C1132.259,745.039,1122.997,736.256,1113.831,726.784L1113.831,726.784z"/>
	<path id="path3849_1_" fill="none" stroke="#FFFFFF" stroke-dasharray="1,1" d="M1110.362,744.669
		c-6.883,2.333-13.327,4.557-20.5,6.928c-8.623,2.851-11.337,3.646-19.125,6.172c8.076,0.688,15.904,3.15,22.938,7.212
		c4.418-1.271,9.186-2.265,14.375-2.646c2.988-0.202,5.988-0.159,8.969,0.126c1.252-2.538,2.609-5.012,4.125-7.399
		C1117.558,751.713,1113.981,748.245,1110.362,744.669z M1019.332,780.314c-0.729,0.439-1.217,0.744-1.969,1.195
		c-6.525,3.918-13.27,7.831-20.188,11.398s-6.049,8.231-31.813,10.549c1.041-0.095-11.01,3.324-29.438,5.195
		c-0.419,0.042-0.94,0.024-1.375,0.063l4.75,7.085c9.352,13.963,11.968,31.425,7.125,47.547l-4.938,16.438
		c-1.136,3.783-2.665,7.436-4.563,10.896l-1.344,2.456l12.344,4.125c0.799,0.297,1.591,0.612,2.375,0.944
		c0.178-16.84,7.866-32.706,20.938-43.202l28.063-22.481c0.011,0,0.021,0,0.031,0c1.704-1.365,2.235-1.739,3.719-2.93
		c-0.895-9.098,0.912-15.25,3.595-24.687C1008.616,797.965,1011.646,789.718,1019.332,780.314L1019.332,780.314z"/>
</g>
</svg>
