<svg version="1.1"
	 id="landmass" xmlns:cc="http://creativecommons.org/ns#" xmlns:rdf="http://www.w3.org/1999/02/22-rdf-syntax-ns#" xmlns:svg="http://www.w3.org/2000/svg" xmlns:dc="http://purl.org/dc/elements/1.1/"
	 xmlns="http://www.w3.org/2000/svg" xmlns:xlink="http://www.w3.org/1999/xlink" x="0px" y="0px" width="1079px" height="907px"
	 viewBox="0 0 1079 907" enable-background="new 0 0 1079 907" xml:space="preserve">
<filter  x="-0.11025544" y="-0.13163403" width="1.2205108" height="1.2632681" id="filter3773" color-interpolation-filters="sRGB">
	<feGaussianBlur  id="feGaussianBlur3775" stdDeviation="49.126669"></feGaussianBlur>
</filter>
<g id="layer1">
	<g id="path3779" filter="url(#filter3773)">
		<path d="M1040.548,870.939l-2.656-786.718c-23.473-4.758-40.309-6.676-65.375-3.094c-10.962,1.555-22.073-1.588-30.594-8.656
			c-4.381,5.877-9.584,12.928-16.875,21.969c-6.899,8.551-17.066,13.822-28.031,14.531c-19.912,1.283-39.839,4.502-60.063,8.75
			c3.806,7.703,4.979,16.439,3.344,24.875c-3.608,18.301-3.275,39.014-2.531,62.625c10.872,16.416,20.027,32.672,17.313,56.406
			c-1.89,16.533-8.678,28.094-17.155,37.875c1.282,14.008-5.022,27.631-16.531,35.719l-19.5,13.656l6.688,20.031
			c1.605,4.82,2.259,9.91,1.925,14.979c-1.425,21.645-20.124,38.037-41.77,36.613c0,0-12.359-0.787-27.219-0.156
			s-32.833,5.584-31.313,4.719c-1.055,0.602-20.947,18.826-34.344,35.031c-8.816,10.666-15.01,18.82-19.125,24.375l-5.938,27.875
			l17.406-0.75c8.3-0.357,16.498,1.925,23.42,6.521c18.067,12.002,22.986,36.379,10.985,54.447
			c-19.646,29.567-36.484,44.69-58.688,58.28c-0.057,10.014-3.937,19.626-10.844,26.875L610.765,681l-3.188,38.281
			c-1.092,13.201-8.764,24.962-20.405,31.281l-34.75,18.844c-14.063,7.621-31.344,5.952-43.688-4.219
			c-23.185-19.104-29.034-19.336-59.094-27.438l-34.907-1.344c-1.676,14.569-11.328,26.991-25.032,32.214
			c-20.27,7.724-42.962-2.445-50.687-22.714l-5.625-14.844l-156.281,10.25c-8.393,8.307-16.051,19.107-24.125,31.5l2.625,2.344
			c0.692,0.62,1.362,1.265,2.008,1.933c15.084,15.588,14.674,40.453-0.914,55.536c7.334,11.54,8.141,26.064,2.125,38.344
			c128.469,0.079,256.917,0.167,385.688,0.125C709.634,871.039,875.003,870.949,1040.548,870.939z"/>
	</g>
	<path id="path2996" fill="#36363D" stroke="#FFFFFF" stroke-width="3" d="M1079,906.795c-357.431,0-714.006,0.463-1069.371-0.001
		v-44.919l71.002-24.633l42.021,13.041l-37.674-31.878l4.347-34.776l39.124,17.389l-27.53-24.634
		c17.721-27.737,32.775-56.475,59.408-76.797l198.516-13.041l15.938,42.021l2.898-36.226l76.798,2.898
		c34.311,9.466,49.738,12.735,78.247,36.226l34.776-18.837l4.347-52.165l31.879-33.327L596.48,608.3
		c39.125-20.236,46.899-22.402,72.45-60.857l-68.104,2.896l18.307-85.739c0,0,44.442-62.121,70.64-77.063
		c23.5-13.404,80.589-9.629,80.589-9.629l-15.938-47.818l43.47-30.428l-7.245-13.041c30.505-28.471,32.277-35.002,7.245-72.451
		c-0.895-27.748-2.518-55.123,2.898-82.594h-23.186l-4.347-15.939h-26.082l2.897-20.287c47.389-12.834,94.118-25.797,143.451-28.979
		c21.148-26.227,28.397-45.313,60.858-55.064l11.593,27.531c41.354-5.908,67.846,1.047,110.125,10.145L1079,906.795L1079,906.795z"
		/>
	<path id="path3799" fill="none" stroke="#FFFFFF" stroke-width="3" stroke-dasharray="3,16" d="M1059.079,885.46l-2.75-820.156
		c-32.238-6.979-53.978-11.012-86.438-6.375c-9.365,1.33-18.451-3.813-22.125-12.529l-3.281-7.814
		c-3.012,2.18-5.687,4.596-8.469,7.625c-6.702,7.293-13.92,18.563-25.313,32.689c-3.659,4.541-9.056,7.342-14.875,7.719
		c-34.627,2.232-68.592,9.715-103.25,18.688c0.744,1.377,1.332,2.834,1.75,4.344l0.155,0.594h7.281c1.348,0,2.694,0.131,4.016,0.391
		c11.287,2.217,18.641,13.166,16.423,24.453c-4.42,22.418-3.586,46.256-2.72,72.064c11.179,16.863,19.319,30.617,17.281,48.438
		c-1.646,14.4-9.114,24.412-19.156,34.5c4.444,9.199,1.559,20.266-6.813,26.125l-30.75,21.5l11.03,33.094
		c0.854,2.561,1.203,5.264,1.025,7.959c-0.754,11.479-10.671,20.17-22.15,19.416c0,0-13.256-0.865-29.219-0.188
		s-34.975,4.436-39.688,7.125c-6.712,3.828-25.548,22.547-39.406,39.313c-11.41,13.804-19.164,24.348-22.094,28.374l-11.75,55.063
		l41.219-1.75c4.399-0.186,8.743,1.028,12.41,3.467c9.579,6.369,12.179,19.299,5.809,28.877c-22.098,33.257-37.093,44.575-63.75,59
		l0.656,1.688c2.892,7.529,1.174,16.052-4.406,21.875l-26.813,27.969l-3.72,44.844c-0.582,7.008-4.66,13.248-10.844,16.595
		l-34.75,18.813c-7.457,4.033-16.615,3.144-23.156-2.25c-25.669-21.15-35.717-22.701-68.125-31.563l-54.53-2.031l-1.313,16.313
		c-0.656,7.992-5.843,14.898-13.335,17.757c-10.748,4.1-22.784-1.289-26.884-12.037l-10.469-27.626L169.45,719.404
		c-15.78,13.584-27.688,32.019-40.594,52.656l14.438,12.905c6.71,6.018,8.787,15.667,5.149,23.913
		c-4.643,10.524-16.938,15.292-27.463,10.649l-1.781-0.781l17.875,15.125c6.387,5.406,8.917,14.109,6.428,22.096
		c-3.424,10.982-15.102,17.109-26.083,13.687l-35.406-11L31.42,876.217v9.25c170.772,0.207,341.794,0.244,513.094,0.188
		C715.803,885.601,887.337,885.478,1059.079,885.46z"/>
</g>
</svg>
