<svg xmlns="http://www.w3.org/2000/svg" xmlns:xlink="http://www.w3.org/1999/xlink" version="1.1" x="0px" y="0px" width="595.28px" height="391px" viewBox="0 0 595.28 442" enable-background="new 0 0 595.28 442" xml:space="preserve" class="logobox">
	<style>.style0{<!-- clip-path:	url(#SVGID_2_);fill-rule:	evenodd;clip-rule:	evenodd;fill:	#88B6E5; -->}</style>
	<g>
		<defs>
			<rect y="-198.9" width="595.3" height="841.9"/>
		</defs>
		<defs>
			<pattern id="paper" patternUnits="userSpaceOnUse" width="100" height="100">
			    <image xlink:href="images/aperile-blue.png" x="0" y="0" width="100" height="100" fill="#88B6E5"/>
			</pattern>
		</defs>
		<clipPath>
			<use xlink:href="#SVGID_1_" overflow="visible"/>
		</clipPath>
		<path d="M80.361 406.67l12.381 15.701H81.088 l-8.002-10.152c-6.737 4.014-14.134 5.832-21.997 5.832c-11.896 0-22.17-4.012-30.611-12.422C12.167 397.3 8 387.3 8 375.6 c0-7.772 1.873-15.061 5.715-21.818c3.769-6.631 8.937-11.924 15.551-15.721c6.671-3.832 13.906-5.66 21.599-5.66 c11.884 0 22.2 4 30.6 12.402c8.423 8.4 12.5 18.6 12.5 30.48c0 5.955-1.027 11.771-3.412 17.2 C88.154 397.9 84.6 402.6 80.4 406.7 M240.465 364.594c2.557-3.096 5.57-5.813 9.116-7.734 c3.872-2.104 8.05-3.123 12.458-3.123c4.396 0 8.5 1.1 12.2 3.504c3.563 2.3 6.2 5.5 7.9 9.4 c2.19 5.1 2.5 12.6 2.5 18.115v31.264h-8.981v-29.027c0-3.875 0.054-9.762-0.856-13.525 c-0.786-3.248-2.195-6.365-4.876-8.479c-2.685-2.119-6.039-2.83-9.398-2.83c-4.524 0-8.491 1.512-11.955 4.4 c-3.49 2.93-5.883 6.568-6.996 10.996c-1.129 4.486-1.078 11.344-1.078 15.975v22.473h-9.036v-60.775h9.036V364.594z M215.117 407.016c-2.785 3.082-6.019 5.684-9.773 7.535c-4.199 2.07-8.709 3.016-13.384 3.016c-8.652 0-15.99-3.172-22.032-9.355 c-6.154-6.299-9.119-13.932-9.119-22.727c0-8.725 3.088-16.207 9.216-22.412c6.092-6.168 13.483-9.336 22.159-9.336 c4.746 0 9.3 1 13.6 3.191c3.691 1.9 6.8 4.7 9.4 7.885v-9.549h8.925v60.775h-8.925V407.016z M100.883 355.3 h9.093v28.434c0 3.877-0.024 10 1.1 13.77c1.015 3.5 3 6.2 6 8.244c3.163 2.2 6.8 3 10.6 3 c3.726 0 7.327-0.826 10.423-2.967c2.808-1.943 4.79-4.506 5.88-7.748c1.158-3.447 1.099-10.686 1.099-14.34v-28.434h9.205v29.848 c0 5.859-0.432 13.387-2.914 18.787c-1.951 4.244-4.909 7.607-8.893 10.045c-4.432 2.711-9.669 3.623-14.8 3.6 c-5.159 0-10.385-0.916-14.852-3.621c-4.027-2.439-7.005-5.838-8.953-10.125c-2.506-5.512-2.932-13.275-2.932-19.248V355.264z M74.508 399.279c6.553-6.643 9.721-14.695 9.721-24.094c0-6.016-1.356-11.715-4.357-16.936c-2.96-5.145-7.133-9.135-12.277-12.088 c-5.17-2.971-10.711-4.544-16.673-4.544c-5.936 0-11.477 1.528-16.617 4.505c-5.155 2.982-9.246 7.051-12.182 12.2 c-3.009 5.313-4.379 11.1-4.379 17.199c0 9.2 3.1 17.1 9.7 23.66c6.457 6.4 14.2 9.6 23.4 9.6 c5.828 0 11.328-1.332 16.397-4.143l-18.288-23.182h11.561L74.508 399.279z M192.779 362.514c-4.08 0-7.908 0.982-11.438 3 c-3.567 2.074-6.31 4.965-8.325 8.564c-2.027 3.619-3.095 7.504-3.095 11.652c0 4.2 1.1 8 3.1 11.7 c2.046 3.6 4.8 6.5 8.4 8.66c3.477 2 7.2 3.1 11.3 3.088c4.119 0 7.973-1.061 11.558-3.076 c3.558-2 6.379-4.74 8.375-8.301c2.046-3.648 2.945-7.643 2.945-11.818c0-6.465-2.057-12.123-6.597-16.756 C204.551 364.7 199.1 362.5 192.8 362.5" fill="url(#paper)"/>
		<path fill="url(#paper)" d="M297.711 416.039v-81.671h17.35 c7.914 0 18.8 0.3 26.4 2.946c7.805 2.8 14.1 7.5 18.6 14.449c4.793 7.4 6.7 15.7 6.7 24.4 c0 7.58-1.518 14.947-5.287 21.578c-3.33 5.855-7.833 10.668-13.824 13.814c-6.901 3.623-15.972 4.438-23.642 4.438H297.711z M578.292 332.357h9.036v83.683h-9.036V332.357z M562.416 407.016c-2.784 3.082-6.019 5.684-9.773 7.5 c-4.198 2.07-8.709 3.016-13.384 3.016c-8.652 0-15.991-3.172-22.032-9.355c-6.153-6.299-9.118-13.932-9.118-22.727 c0-8.725 3.088-16.207 9.216-22.412c6.092-6.168 13.482-9.336 22.158-9.336c4.747 0 9.3 1 13.6 3.2 c3.69 1.9 6.8 4.7 9.4 7.885v-9.549h8.925v60.775h-8.925V407.016z M496.393 355.264h12.104v7.957h-12.104v52.818h-9.112 v-52.818h-10.411v-7.957h10.411v-22.031h9.112V355.264z M465.147 330.828c1.934 0 3.6 0.7 5 2.1 c1.363 1.4 2 3 2 4.965c0 1.912-0.697 3.559-2.047 4.91c-1.369 1.367-3.033 2.066-4.967 2.1 c-1.925 0-3.566-0.707-4.927-2.066c-1.353-1.352-2.051-2.998-2.051-4.91c0-1.93 0.686-3.6 2.05-4.965 C461.579 331.5 463.2 330.8 465.1 330.8 M460.63 355.264h9.092v60.775h-9.092V355.264z M444.706 406 c-2.674 2.982-5.859 5.355-9.523 7.076c-4.273 2.006-8.782 2.99-13.504 2.99c-5.593 0-10.857-1.398-15.728-4.152 c-4.805-2.713-8.656-6.422-11.4-11.211c-2.735-4.773-4.022-9.951-4.022-15.453c0-5.604 1.396-10.852 4.189-15.713 c2.81-4.891 6.693-8.717 11.583-11.527c4.818-2.768 10.024-4.246 15.584-4.246c4.444 0 8.7 0.9 12.7 2.8 c3.855 1.8 7.2 4.7 10.1 7.859v-9.156h9.093v48.025c0 5.611-0.255 13.207-2.223 18.5 c-2.066 5.57-5.617 9.926-10.728 12.967c-5.53 3.291-11.823 4.512-18.2 4.512c-4.721 0-9.479-0.619-13.942-2.199 c-3.719-1.318-7.278-3.193-10.156-5.926c-3.096-2.938-5.425-6.984-7.193-10.832l-0.457-0.992h9.786l0.202 0.4 c2.046 3.6 4.8 6.5 8.5 8.465c3.924 2.1 8.5 2.7 12.9 2.748c4.406 0 8.923-0.713 12.833-2.836 c3.058-1.66 5.764-3.92 7.386-7.047c1.938-3.736 2.212-9.779 2.212-13.906V405.973z M378.799 330.8 c1.935 0 3.6 0.7 5 2.068c1.364 1.4 2 3 2 4.965c0 1.912-0.697 3.559-2.048 4.9 c-1.368 1.367-3.032 2.066-4.967 2.066c-1.924 0-3.565-0.707-4.926-2.066c-1.353-1.352-2.051-2.998-2.051-4.91 c0-1.93 0.686-3.6 2.05-4.965C375.231 331.5 376.9 330.8 378.8 330.8 M374.282 355.264h9.092v60.775h-9.092V355.264z M306.82 407.059h8.575c6.474 0 16.682-0.049 22.86-2.053c5.792-1.879 10.453-5.275 13.865-10.322 c3.698-5.477 5.076-11.826 5.076-18.363c0-6.965-1.547-13.652-5.504-19.457c-3.755-5.512-8.924-9.086-15.289-11.031 c-6.999-2.135-17.333-2.26-24.621-2.26h-4.963V407.059z M540.078 362.514c-4.08 0-7.908 0.982-11.438 3 c-3.567 2.074-6.311 4.965-8.326 8.564c-2.026 3.619-3.095 7.504-3.095 11.652c0 4.2 1.1 8 3.1 11.7 c2.046 3.6 4.8 6.5 8.4 8.66c3.477 2 7.2 3.1 11.3 3.088c4.12 0 7.973-1.061 11.558-3.076 c3.558-2 6.379-4.74 8.375-8.301c2.046-3.648 2.945-7.643 2.945-11.818c0-6.465-2.058-12.123-6.597-16.756 C551.85 364.7 546.4 362.5 540.1 362.5 M422.871 362.514c-4.161 0-8.08 0.99-11.705 3 c-3.592 2.029-6.427 4.834-8.472 8.416c-2.052 3.596-3.073 7.488-3.073 11.629c0 6.1 2 11.4 6.3 15.7 c4.528 4.4 10.2 6.2 16.5 6.17c6.231 0 11.944-1.697 16.438-6.129c4.443-4.385 6.218-9.955 6.218-16.133 c0-4.098-0.864-8.045-2.873-11.634c-1.93-3.45-4.63-6.116-8.074-8.056C430.65 363.5 426.9 362.5 422.9 362.5"/>
		<path fill="url(#paper)" d="M297.663 6 c76.808 0 139.1 62.3 139.1 139.072c0 25.423-6.826 49.25-18.74 69.755l-41.845-31.148 c7.252-22.205 7.085-57.072-0.499-78.694c-3.829-10.918-9.084-19.718-15.766-26.399c-6.682-6.68-14.462-11.529-23.343-14.543 c-8.882-3.015-18.374-4.523-28.477-4.523h-83.107v171.104h83.107c10.103 0 19.595-1.508 28.477-4.521l0.781-0.271l29.647 39.8 c-20.403 11.754-44.068 18.484-69.308 18.484c-76.807 0-139.072-62.264-139.072-139.071S220.856 6 297.7 6 M272.487 120.3 l139.573 103.895c-9.646 13.928-21.77 26.008-35.733 35.604L272.487 120.262z"/>
	</g>
</svg>