<svg xmlns="http://www.w3.org/2000/svg" xmlns:xlink="http://www.w3.org/1999/xlink" version="1.1" id="Layer_2" x="0px" y="0px" width="100px" height="100px" viewBox="0 0 100 100" enable-background="new 0 0 100 100" xml:space="preserve" fill="#36363d">
<path d="M58.67,53.5v-5.25c0,0-1.062-0.438-1.688,0s-4.562,3.094-4.562,3.094L51.982,53.5H58.67z"/>
<path d="M44.607,53.5l-1.75-3.938c0,0-1.25-0.875-0.938,0s1.199,2,1.318,3.938H44.607z"/>
<path d="M35.532,53.507l-1.75-3.938c0,0-1.25-0.875-0.938,0s1.199,2,1.318,3.938H35.532z"/>
<path d="M5.861,68.82"/>
<path d="M5.736,67.499"/>
<path d="M20.67,46.938"/>
<path d="M7.551,47.02"/>
<polygon points="18.463,53.59 28.108,53.59 27.358,51.42 20.21,47.02 19.085,43.458 21.55,43.458 21.55,42.833 20.55,42.833   20.55,40.625 17.733,40.625 17.733,37.125 17.265,37.125 17.265,40.625 15.863,40.625 15.863,42.833 14.862,42.833 14.862,43.458   16.203,43.458 "/>
<path d="M14.7,54.688l58.948-0.021c3.25,0,16.917-1.542,16.917-1.542c2.167-0.333,3.167-0.089,3.667,1.792  c0.391,1.468-0.709,1.875-3.354,2.08L90.732,57c0,0-10.877,1.047-17.084,1.047c-3.5,0-58.931,0-58.931,0L14.7,54.688z   M10.649,59.092l63.001-0.003c13.166,0.089,16.484-1.043,16.484-1.043s-6.694,9.164-16.486,8.788H18.316l-7.667-3.168V59.092z"/>
<path d="M4.955,65.847H4.58v1.152H4.342H3.674v1.321H4.58v1.151h0.375V68.32h0.906v2.429h1.312c0,0,4.25-2.062,4.375-3  s0.2-2.373,0.2-2.373l-2.138-0.814l0.02-7.114l4.231-0.021l-0.063-5.051c0,0-6.801-2.32-10.125,0v5.124l3.415,0.111l0.019,6.952  l-1.246-0.002v2.438H4.955V65.847v1.169"/>
<!--path d="M94.814,24.839c0,5.636-4.57,10.206-10.205,10.206c-5.638,0-10.206-4.569-10.206-10.206c0-5.637,4.568-10.207,10.206-10.207  C90.244,14.632,94.814,19.202,94.814,24.839z M84.609,15.361c-5.234,0-9.478,4.243-9.478,9.478c0,5.234,4.243,9.477,9.478,9.477  c5.232,0,9.477-4.243,9.477-9.477C94.086,19.604,89.842,15.361,84.609,15.361z"/>
<path d="M85.502,23.667c0,0-0.155,7.798-0.858,9.173h-0.069c-0.703-1.375-0.858-9.173-0.858-9.173H85.502z"/>
<path d="M85.537,23.094"/>
<path d="M83.156,23.094v-0.375h1.063v-0.812c0,0-0.157-1.844-0.001-2.438S84.344,17,84.344,17h-0.25v-0.531h1.101V17h-0.25  c0,0-0.031,1.875,0.125,2.469s-0.001,2.438-0.001,2.438v0.812h1.063v0.375H83.156z"/-->
</svg>