<svg xmlns="http://www.w3.org/2000/svg" xmlns:xlink="http://www.w3.org/1999/xlink" version="1.1" x="0px" y="0px" width="841.89px" height="202px" viewBox="0 0 841.89 202" enable-background="new 0 0 841.89 202" xml:space="preserve"><style>.style0{clip-path:	url(#SVGID_2_);fill-rule:	evenodd;clip-rule:	evenodd;fill:	#485057;}</style>
<g><defs><rect y="-165.3" width="841.9" height="595.3"/></defs><clipPath><use xlink:href="#SVGID_1_" overflow="visible"/></clipPath><path d="M321.831 133.372l12.437 15.8 h-11.706l-8.038-10.197c-6.767 4.032-14.197 5.858-22.094 5.858c-11.949 0-22.268-4.029-30.746-12.478 c-8.348-8.317-12.534-18.418-12.534-30.204c0-7.807 1.881-15.127 5.74-21.915c3.786-6.66 8.977-11.975 15.621-15.791 c6.7-3.848 13.967-5.686 21.694-5.686c11.936 0 22.3 4 30.7 12.458c8.46 8.4 12.5 18.7 12.5 30.6 c0 5.98-1.031 11.823-3.427 17.323C329.659 124.5 326.1 129.3 321.8 133.4 M482.644 91.1 c2.568-3.108 5.595-5.838 9.156-7.769c3.891-2.112 8.086-3.135 12.514-3.135c4.416 0 8.6 1.1 12.2 3.5 c3.577 2.3 6.2 5.5 7.9 9.462c2.201 5.2 2.5 12.7 2.5 18.196v31.4h-9.02v-29.156c0-3.891 0.055-9.805-0.861-13.584 c-0.787-3.264-2.201-6.394-4.897-8.518c-2.695-2.129-6.064-2.842-9.438-2.842c-4.544 0-8.529 1.518-12.008 4.4 c-3.506 2.944-5.908 6.596-7.027 11.043c-1.135 4.509-1.083 11.396-1.083 16.047v22.572h-9.074V81.739h9.074V91.107z M457.184 133.72c-2.796 3.094-6.045 5.708-9.816 7.564c-4.218 2.081-8.747 3.03-13.442 3.03c-8.69 0-16.061-3.185-22.129-9.396 c-6.182-6.325-9.161-13.992-9.161-22.826c0-8.764 3.103-16.279 9.258-22.512c6.118-6.195 13.543-9.376 22.255-9.376 c4.769 0 9.4 1 13.6 3.206c3.705 2 6.8 4.7 9.4 7.918v-9.589h8.965v61.042h-8.965V133.72z M342.445 81.739h9.133 v28.556c0 3.894-0.023 10.1 1.1 13.832c1.02 3.5 3 6.2 6 8.281c3.176 2.2 6.8 3.1 10.7 3.1 c3.742 0 7.36-0.829 10.468-2.979c2.821-1.953 4.812-4.528 5.906-7.784c1.164-3.462 1.105-10.732 1.105-14.405V81.739h9.246v29.977 c0 5.888-0.435 13.448-2.928 18.871c-1.96 4.264-4.93 7.64-8.932 10.09c-4.451 2.721-9.711 3.638-14.865 3.6 c-5.182 0-10.432-0.921-14.918-3.637c-4.045-2.451-7.036-5.863-8.992-10.169c-2.518-5.536-2.945-13.334-2.945-19.333V81.739z M315.952 125.948c6.583-6.672 9.765-14.76 9.765-24.201c0-6.042-1.362-11.767-4.377-17.01c-2.972-5.168-7.164-9.175-12.33-12.142 c-5.193-2.982-10.76-4.565-16.748-4.565c-5.962 0-11.528 1.535-16.689 4.526c-5.179 2.996-9.288 7.083-12.237 12.3 c-3.022 5.336-4.399 11.149-4.399 17.276c0 9.3 3.1 17.2 9.7 23.764c6.486 6.5 14.3 9.7 23.5 9.7 c5.854 0 11.379-1.337 16.47-4.161l-18.369-23.284h11.613L315.952 125.948z M434.747 89.018c-4.099 0-7.942 0.988-11.488 3 c-3.583 2.085-6.338 4.988-8.363 8.603c-2.036 3.635-3.109 7.538-3.109 11.704c0 4.2 1.1 8.1 3.1 11.7 c2.056 3.6 4.8 6.6 8.4 8.697c3.49 2.1 7.3 3.1 11.3 3.104c4.14 0 8.01-1.066 11.61-3.09 c3.572-2.009 6.406-4.761 8.411-8.337c2.057-3.667 2.958-7.678 2.958-11.871c0-6.495-2.066-12.176-6.624-16.832 C446.572 91.2 441.1 89 434.7 89" class="style0"/><path d="M540.142 142.781V60.749h17.428 c7.948 0 18.9 0.3 26.5 2.958c7.837 2.8 14.1 7.5 18.7 14.515c4.815 7.4 6.7 15.8 6.7 24.6 c0 7.616-1.528 15.016-5.313 21.674c-3.344 5.883-7.866 10.716-13.885 13.876c-6.933 3.639-16.043 4.457-23.747 4.457H540.142z M821.966 58.728h9.075v84.053h-9.075V58.728z M806.018 133.72c-2.796 3.094-6.042 5.708-9.813 7.6 c-4.219 2.081-8.75 3.03-13.445 3.03c-8.689 0-16.061-3.185-22.127-9.396c-6.184-6.325-9.162-13.992-9.162-22.826 c0-8.764 3.103-16.279 9.257-22.512c6.119-6.195 13.543-9.376 22.257-9.376c4.77 0 9.4 1 13.6 3.2 c3.705 2 6.8 4.7 9.4 7.918v-9.589h8.967v61.042h-8.967V133.72z M739.703 81.739h12.156v7.99h-12.156v53.053h-9.151 V89.729h-10.459v-7.99h10.459V59.607h9.151V81.739z M708.319 57.194c1.943 0 3.6 0.7 5 2.1 c1.371 1.4 2.1 3 2.1 4.986c0 1.921-0.7 3.575-2.058 4.933c-1.376 1.373-3.046 2.075-4.989 2.1 c-1.933 0-3.583-0.711-4.948-2.075c-1.357-1.358-2.058-3.012-2.058-4.933c0-1.938 0.687-3.615 2.058-4.988 C704.736 57.9 706.4 57.2 708.3 57.2 M703.783 81.739h9.133v61.042h-9.133V81.739z M687.789 132.7 c-2.688 2.998-5.886 5.379-9.566 7.109c-4.292 2.014-8.819 3.003-13.564 3.003c-5.617 0-10.905-1.404-15.797-4.169 c-4.823-2.729-8.693-6.453-11.45-11.261c-2.747-4.796-4.039-9.996-4.039-15.522c0-5.631 1.403-10.901 4.208-15.784 c2.823-4.91 6.721-8.755 11.632-11.578c4.843-2.779 10.071-4.264 15.655-4.264c4.463 0 8.8 0.9 12.8 2.8 c3.873 1.9 7.2 4.7 10.1 7.895v-9.196h9.135v48.237c0 5.636-0.258 13.264-2.237 18.6 c-2.073 5.593-5.641 9.967-10.771 13.023c-5.558 3.305-11.88 4.531-18.283 4.531c-4.74 0-9.521-0.623-14.002-2.211 c-3.735-1.32-7.311-3.206-10.204-5.95c-3.108-2.951-5.446-7.018-7.224-10.879l-0.459-0.999h9.829l0.201 0.4 c2.058 3.6 4.8 6.6 8.5 8.501c3.94 2.1 8.6 2.8 13 2.763c4.425 0 8.961-0.719 12.886-2.852 c3.073-1.668 5.79-3.935 7.422-7.075c1.946-3.756 2.221-9.823 2.221-13.97V132.669z M621.591 57.2 c1.943 0 3.6 0.7 5 2.078c1.371 1.4 2.1 3 2.1 4.986c0 1.921-0.7 3.575-2.058 4.9 c-1.373 1.373-3.043 2.075-4.986 2.075c-1.933 0-3.583-0.711-4.949-2.075c-1.359-1.358-2.06-3.012-2.06-4.933 c0-1.938 0.689-3.615 2.058-4.988C618.005 57.9 619.7 57.2 621.6 57.2 M617.052 81.739h9.132v61.042h-9.132V81.739z M549.293 133.761h8.613c6.501 0 16.755-0.048 22.96-2.061c5.817-1.887 10.5-5.299 13.929-10.369 c3.714-5.498 5.098-11.877 5.098-18.444c0-6.995-1.553-13.713-5.526-19.544c-3.773-5.533-8.964-9.125-15.359-11.079 c-7.029-2.145-17.41-2.27-24.73-2.27h-4.983V133.761z M783.582 89.018c-4.097 0-7.943 0.988-11.488 3 c-3.583 2.085-6.339 4.988-8.364 8.603c-2.033 3.635-3.107 7.538-3.107 11.704c0 4.2 1.1 8.1 3.1 11.7 c2.052 3.6 4.8 6.6 8.4 8.697c3.494 2.1 7.3 3.1 11.3 3.104c4.135 0 8.006-1.066 11.607-3.09 c3.574-2.009 6.408-4.761 8.413-8.337c2.055-3.667 2.959-7.678 2.959-11.871c0-6.495-2.066-12.176-6.627-16.832 C795.406 91.2 790 89 783.6 89 M665.855 89.018c-4.178 0-8.114 0.995-11.755 3.1 c-3.607 2.038-6.455 4.855-8.51 8.453c-2.061 3.612-3.087 7.521-3.087 11.68c0 6.1 2 11.4 6.4 15.7 c4.55 4.4 10.3 6.2 16.6 6.197c6.26 0 11.999-1.706 16.514-6.158c4.46-4.404 6.243-9.999 6.243-16.205 c0-4.115-0.869-8.08-2.886-11.685c-1.938-3.464-4.652-6.143-8.111-8.091C673.67 90 669.9 89 665.9 89" class="style0"/><path d="M117.012 2.6 c54.551 0 98.8 44.2 98.8 98.773c0 18.056-4.85 34.979-13.31 49.542l-29.72-22.121c5.15-15.772 5.032-40.535-0.355-55.891 c-2.719-7.756-6.452-14.005-11.197-18.751c-4.745-4.744-10.272-8.188-16.579-10.329c-6.308-2.141-13.05-3.211-20.225-3.211H65.375 v121.522H124.4c7.175 0 13.917-1.069 20.225-3.213l0.555-0.191l21.057 28.286c-14.491 8.349-31.299 13.131-49.225 13.1 c-54.551 0-98.773-44.223-98.773-98.775C18.239 46.8 62.5 2.6 117 2.6 M99.132 83.724l99.129 73.8 c-6.851 9.891-15.462 18.471-25.379 25.285L99.132 83.724z" class="style0"/></g></svg>