<svg xmlns="http://www.w3.org/2000/svg" xmlns:xlink="http://www.w3.org/1999/xlink" version="1.1" id="Your_Icon" x="0px" y="0px" width="50px" height="50px" viewBox="0 0 100 100" enable-background="new 0 0 100 100" xml:space="preserve">
<path fill="#36363d" d="M86.271,71.003H72.003c0.02-3.447-1.609-10.164-0.776-15.148c0.411-2.462,2.023-5.29,3.043-7.61  c1.156-2.633,3.022-5.598,3.044-7.612c0.008-1.036-2.278-2.571-5.515-4.214V25.446c0-2.574-2.094-4.666-4.668-4.666h-1.597V16.81  c0-2.574-2.092-4.666-4.666-4.666h-4.696V6h-12.51v6.144h-4.696c-2.574,0-4.666,2.091-4.666,4.666v3.971h-1.596  c-2.574,0-4.669,2.092-4.669,4.666v10.972c-3.235,1.644-5.523,3.179-5.513,4.214c0.021,2.014,1.886,4.979,3.043,7.612  c1.019,2.32,2.632,5.148,3.043,7.61c0.833,4.984-0.796,11.701-0.776,15.148H13.729c-0.954,0-1.727,0.772-1.727,1.728  s0.773,1.729,1.727,1.729h17.109c5.358,2.401,17.004,6.177,19.079,6.51c2.075-0.333,13.722-4.108,19.079-6.51h17.274  c0.955,0,1.727-0.773,1.727-1.729S87.226,71.003,86.271,71.003z M37.754,16.81c0-0.668,0.543-1.211,1.211-1.211h21.902  c0.668,0,1.212,0.543,1.212,1.211v3.971H37.754V16.81z M31.489,25.446c0-0.668,0.543-1.21,1.214-1.21h34.427  c0.67,0,1.214,0.542,1.214,1.21v9.329C60.773,31.381,51,28.061,49.917,28.075c-1.083-0.014-10.857,3.307-18.428,6.701V25.446z"/>
<g>
	<!--path d="M68.86,89.674H31.14c-0.955,0-1.727-0.773-1.727-1.728s0.772-1.729,1.727-1.729H68.86c0.955,0,1.728,0.774,1.728,1.729   S69.815,89.674,68.86,89.674z"/-->
</g>
</svg>