<svg version="1.1" id="Layer_1" xmlns="http://www.w3.org/2000/svg" xmlns:xlink="http://www.w3.org/1999/xlink" x="0px" y="0px"
	 width="77.75px" height="86.001px" viewBox="6.233 0 77.75 86.001" enable-background="new 6.233 0 77.75 86.001"
	 xml:space="preserve">
<path d="M57.506,81.605c0.912-0.191,1.826-0.289,2.763-0.289c2.187,0,4.274,0.505,6.125,1.346c1.802,0.816,3.844,1.297,5.957,1.297
	c2.09,0,4.131-0.479,5.933-1.297c1.272-0.576,2.643-1.033,4.107-1.226c-0.793-23.897-25.725-45.228-26.9-46.332
	c-1.226-1.105-2.355-3.531-1.563-6.389l5.957-19.696c1.057-3.05,0.527-7.133-0.938-8.358c-0.841-0.672-2.617-1.153-3.818,0.216
	l-16.11,18.278c-3.531,3.747-0.577,7.758-0.648,7.734c-5.476-1.969-11.914-0.648-15.816,0.961L9.248,34.6
	c-1.321,0.552-1.898,2.234-1.201,3.363c2.21,3.53,9.535,3.555,24.799,1.897C57.506,37.217,57.532,76.729,57.506,81.605z"/>
</svg>
